<?xml version="1.0" encoding="UTF-8" standalone="no"?>
<!-- Created with Inkscape (http://www.inkscape.org/) -->

<svg
   xmlns:dc="http://purl.org/dc/elements/1.1/"
   xmlns:cc="http://creativecommons.org/ns#"
   xmlns:rdf="http://www.w3.org/1999/02/22-rdf-syntax-ns#"
   xmlns:svg="http://www.w3.org/2000/svg"
   xmlns="http://www.w3.org/2000/svg"
   xmlns:sodipodi="http://sodipodi.sourceforge.net/DTD/sodipodi-0.dtd"
   xmlns:inkscape="http://www.inkscape.org/namespaces/inkscape"
   width="59.551907mm"
   height="173.57257mm"
   viewBox="0 0 59.551907 173.57257"
   version="1.1"
   id="svg846"
   inkscape:version="0.92.4 (5da689c313, 2019-01-14)"
   sodipodi:docname="man.svg">
  <defs
     id="defs840" />
  <sodipodi:namedview
     id="base"
     pagecolor="#ffffff"
     bordercolor="#666666"
     borderopacity="1.0"
     inkscape:pageopacity="0.0"
     inkscape:pageshadow="2"
     inkscape:zoom="0.87681241"
     inkscape:cx="330.48002"
     inkscape:cy="449.6925"
     inkscape:document-units="mm"
     inkscape:current-layer="layer1"
     showgrid="false"
     inkscape:window-width="1366"
     inkscape:window-height="705"
     inkscape:window-x="-8"
     inkscape:window-y="-8"
     inkscape:window-maximized="1" />
  <metadata
     id="metadata843">
    <rdf:RDF>
      <cc:Work
         rdf:about="">
        <dc:format>image/svg+xml</dc:format>
        <dc:type
           rdf:resource="http://purl.org/dc/dcmitype/StillImage" />
        <dc:title />
      </cc:Work>
    </rdf:RDF>
  </metadata>
  <g
     inkscape:label="Layer 1"
     inkscape:groupmode="layer"
     id="layer1"
     transform="translate(-94.956189,-68.850617)">
    <path
       style="fill:none;stroke:#060000;stroke-width:0.50300002;stroke-linecap:butt;stroke-linejoin:miter;stroke-miterlimit:4;stroke-dasharray:none;stroke-opacity:1"
       d="m 103.19922,104.5606 c 0.18579,-1.4338 -0.2072,-4.21745 0.75596,-7.27605 2.93615,-0.699788 4.83029,-0.357566 6.52009,0.188992 1.81442,1.081924 3.47435,2.202468 3.3073,3.779758 2.45813,0.11082 5.6013,-0.48848 6.2366,1.5119 0.98771,2.79049 2.46835,6.00349 1.79539,7.37054 l 3.49628,-0.18899 0.28348,-2.36235 5.66965,-3.1183 c 0.97932,-1.05562 2.01063,-2.02461 3.73251,-1.84264 2.00751,0.37211 3.25193,1.23477 3.49628,2.74033 0.32867,0.94906 0.56663,2.07954 0.51972,3.77976 -0.36271,2.5009 -2.28113,4.84622 -3.82701,7.2288 -1.33193,1.27101 -2.79877,1.05801 -4.25223,0.99218 -1.33272,-0.37851 -1.45047,-0.86748 -1.41741,-1.37016 l 0.0472,-0.0472 m 2.17341,-10.06366 c -0.52326,-0.42883 0.88507,-2.29174 2.45684,-1.79539 1.21743,0.24248 2.68363,-0.0126 3.07106,1.88988 0.79303,1.76724 0.93934,3.14644 0.47247,4.15774 -0.68901,1.47581 -1.40539,2.94707 -2.83482,4.29948 h 0.0945 m -3.21281,-0.8032 c 0.5337,-0.39196 1.0002,0.0392 1.98438,-0.8032 l 1.27567,-1.27567 c 0.18137,-1.1361 0.56131,-2.21547 -0.0945,-3.59077 -0.45109,-0.45898 -1.06103,-0.70616 -1.88989,-0.66146 -0.58202,0.0445 -1.05407,-0.35089 -1.51189,-0.8032 m -0.23624,2.55134 c -0.48716,0.44309 -0.65625,1.08856 -0.80321,1.74814 0.27396,0.39248 0.65894,0.76276 0.33074,1.27567 -0.17018,0.21239 -0.38117,0.32274 -0.61422,0.37797 -0.24262,0.31096 -0.2443,0.66572 -0.14174,1.03944 l 0.14174,0.0472 m 8.88245,-5.38611 c 2.19553,1.88988 5.20521,3.77976 6.70907,5.66964 2.19499,-0.52933 4.39928,-1.12383 7.08706,-5.10268 l -0.85045,-3.1183 -1.5119,-1.41741 -0.66146,-1.6064 c 0.13202,-1.05368 0.21239,-2.12027 1.32291,-2.929319 l 0.37799,-2.645833 c -0.29312,-3.496279 0.10491,-6.992559 -1.32292,-10.488839 -0.52409,-1.29711 -1.53479,-2.35091 -2.55134,-3.40179 -1.10043,-1.54476 -2.43573,-4.28183 -3.84018,-5.44343 -1.25305,-1.03637 -3.54504,-1.42158 -4.61244,-2.14791 -2.56291,-1.74399 -3.39813,-3.28808 -4.32151,-4.95402 -1.2259,-2.21173 -2.50911,-1.29717 -4.32929,-1.15627 -8.86485,2.16436 -17.52032,4.55905 -23.907,9.4494 -4.43366,1.96152 -7.320978,5.69028 -10.016368,9.63839 l 1.7009,6.80358 5.480648,2.17336 m 1.21733,21.349491 c 0.74056,-0.14893 1.59805,-0.20892 2.33861,-0.75169 0.40272,-0.22567 0.36148,-0.87073 0.46772,-1.31965 m -4.51975,1.41604 c 0.9883,-0.53255 1.91679,-0.25685 2.7167,0.35436 m 18.8988,9.66201 3.87426,-1.93712 c 0.79227,-0.62959 2.13832,-1.0462 2.22061,-2.5041 0.41602,-1.86758 0.57248,-1.58512 0.61421,-3.827 m 19.0251,-8.40938 c -3.93639,7.6117 -6.06369,15.82644 -8.15172,24.05426 l -4.81085,-2.13816 c -1.15867,-0.30614 -2.41127,-0.3959 -3.27405,-1.5368 l -6.61492,-2.73951 c -3.08859,-1.65655 -5.83485,-1.0146 -8.48581,0.26727 -2.39711,1.86554 -4.60169,2.57592 -6.74855,2.93996 -2.85766,-0.12685 -5.07017,-0.89886 -5.54585,-3.40769 l 0.13364,-2.13815 c -0.12303,-0.42848 -0.45633,-0.75183 -0.93545,-1.00226 -0.34755,0.19529 -0.7669,-0.11204 -1.20271,-0.53454 -0.55747,-0.70158 -0.28767,-1.40317 -0.16704,-2.10475 l 0.4009,-0.36749 c -0.44199,-0.35982 -1.1285,-0.47514 -1.1693,-1.23613 -0.31394,-0.47414 -0.24535,-0.90578 -0.16705,-1.33634 0.80701,-0.19303 0.9986,-0.7707 1.10249,-1.40317 -1.02009,0.0738 -1.90819,-0.26486 -2.57247,-1.30294 -0.0932,-0.89582 -0.76014,-1.17073 0.0358,-2.13005 1.68962,-1.50372 2.07697,-2.72395 5.10677,-4.22767 1.88365,-0.31976 2.53514,-1.50272 2.99393,-2.17869 -0.92906,-0.9622 -1.6085,-1.36671 -3.42586,-1.08529 -6.39295,0.35512 -3.33138,-3.81836 -4.01696,-3.33779 6.29924,-0.1434 7.20986,0.72765 9.63841,2.26785 -4.86921,-1.04808 -7.79291,-1.18825 -8.88244,-0.47247 -0.75597,-1.79538 -0.53931,-1.30288 -0.75597,-1.79535 m 2.11265,18.23804 c 1.83898,0.38911 3.35844,0.0327 4.82401,-0.44952"
       id="path826"
       inkscape:connector-curvature="0"
       sodipodi:nodetypes="ccccccccccccccccccccccccccccccccccccccccccccssscccccccccccccccccccsccccccccccccccccccccc" />
    <path
       style="fill:none;stroke:#000000;stroke-width:0.37041667;stroke-linecap:butt;stroke-linejoin:miter;stroke-miterlimit:4;stroke-dasharray:none;stroke-opacity:1"
       d="m 106.25848,112.00199 -0.57878,0.25987 c -0.44661,-0.94436 -1.06891,-2.84729 -0.47248,-4.41761 l 0.72053,0.0709"
       id="path848"
       inkscape:connector-curvature="0"
       sodipodi:nodetypes="cccc" />
    <path
       style="fill:#000000;fill-opacity:1;stroke:#000000;stroke-width:0.26458332;stroke-linecap:butt;stroke-linejoin:miter;stroke-miterlimit:4;stroke-dasharray:none;stroke-opacity:1"
       d="m 105.13236,108.82463 c 1.16173,0.74222 0.89305,1.54132 0.33865,2.26786 v 0 c -0.23995,-0.2451 -0.61934,-1.32901 -0.33865,-2.26786 z"
       id="path850"
       inkscape:connector-curvature="0"
       sodipodi:nodetypes="cccc" />
  </g>
</svg>
