<?xml version="1.0" encoding="UTF-8" standalone="no"?>
<!-- Created with Inkscape (http://www.inkscape.org/) -->

<svg
   xmlns:dc="http://purl.org/dc/elements/1.1/"
   xmlns:cc="http://creativecommons.org/ns#"
   xmlns:rdf="http://www.w3.org/1999/02/22-rdf-syntax-ns#"
   xmlns:svg="http://www.w3.org/2000/svg"
   xmlns="http://www.w3.org/2000/svg"
   xmlns:sodipodi="http://sodipodi.sourceforge.net/DTD/sodipodi-0.dtd"
   xmlns:inkscape="http://www.inkscape.org/namespaces/inkscape"
   version="1.1"
   id="svg4530"
   width="5376"
   height="4032"
   viewBox="0 0 5376 4032"
   sodipodi:docname="hand_cotton.svg"
   inkscape:version="0.92.4 (5da689c313, 2019-01-14)">
  <metadata
     id="metadata4536">
    <rdf:RDF>
      <cc:Work
         rdf:about="">
        <dc:format>image/svg+xml</dc:format>
        <dc:type
           rdf:resource="http://purl.org/dc/dcmitype/StillImage" />
        <dc:title />
      </cc:Work>
    </rdf:RDF>
  </metadata>
  <defs
     id="defs4534" />
  <sodipodi:namedview
     pagecolor="#ffffff"
     bordercolor="#666666"
     borderopacity="1"
     objecttolerance="10"
     gridtolerance="10"
     guidetolerance="10"
     inkscape:pageopacity="0"
     inkscape:pageshadow="2"
     inkscape:window-width="1366"
     inkscape:window-height="705"
     id="namedview4532"
     showgrid="false"
     inkscape:zoom="0.1494184"
     inkscape:cx="3011.7412"
     inkscape:cy="1741.1529"
     inkscape:window-x="-8"
     inkscape:window-y="-8"
     inkscape:window-maximized="1"
     inkscape:current-layer="svg4530" />
  <path
     style="fill:none;stroke:#000000;stroke-width:1px;stroke-linecap:butt;stroke-linejoin:miter;stroke-opacity:1"
     d="M 3551.662,3151.7746 Z"
     id="path5089"
     inkscape:connector-curvature="0" />
  <path
     style="fill:none;stroke:#00000a;stroke-width:4;stroke-linecap:butt;stroke-linejoin:miter;stroke-miterlimit:4;stroke-dasharray:none;stroke-opacity:1"
     d="m 1930.8199,2979.5861 c 0.5073,-16.782 16.011,-18.5675 26.7704,-25.0973 9.8514,-66.4468 -6.2663,-66.5284 -15.0584,-85.3309 -21.17,-26.2127 -46.4647,-52.4255 -48.5214,-78.6382 17.1193,-23.9819 -0.6813,-47.9638 -8.3658,-71.9457 24.0712,-21.1486 54.4404,-39.1482 61.9067,-68.5993 22.7244,20.2199 52.0606,33.828 83.6577,45.1752 l 18.4047,1.6731 c -2.5891,14.0049 9.1774,22.9406 8.3657,38.4826 -8.8565,14.0655 -11.7773,33.6291 -18.4046,61.0701 l -8.3165,26.5583 c -14.9338,20.9195 -28.318,43.8928 -35.1855,75.5041 -10.7616,18.6325 -10.7102,56.3812 -15.0584,87.8406 -32.2207,-20.2703 -40.7418,-3.9715 -50.1946,-6.6926 z m -33.5285,-173.8277 c -7.7103,6.4971 -17.49,11.0771 -28.3943,10.9436 m -28.986,53.831 c -5.2577,12.4564 -14.6247,16.6942 -24.5493,19.8169 m 122.4507,74.831 c -3.9347,-10.2535 -9.1045,-20.5071 -17.7464,-30.7606 -14.6303,-14.1524 -29.096,-28.3753 -49.0986,-40.2253 -7.4934,-9.9575 -16.0696,-19.1569 -31.3521,-23.662 3.2561,-12.0807 6.2503,-24.3316 -5.9155,-46.4366 l -9.7606,-21 c -5.8987,16.5151 -16.4064,19.2031 -25.1408,27.2113 -3.4348,6.5873 -8.0872,12.9039 -4.7324,21 0.283,29.0712 6.5248,55.9755 -0.8874,87.845 -1.3609,9.2077 -1.522,20.815 -5.0281,25.7324 -1.4492,6.1572 -6.4805,6.9414 -10.9437,8.5775 m 19.7606,-65.8221 c 3.9551,4.4482 6.6208,5.2127 14.2218,20.0778 7.1922,13.1808 13.6063,26.984 23.4241,38.0643 5.7532,4.8064 9.3123,11.4966 12.1304,18.823 m -128.9876,53.9274 c 13.3926,17.8228 21.5058,39.1651 25.4366,63.2958 m 44.3662,5.3239 c 20.2122,-50.4628 33.4241,-102.0547 5.324,-160.3098 m 15.3803,53.2394 c 6.3467,-4.4895 9.9384,-13.7997 17.4129,-18.1433 9.9876,-5.804 12.1771,-2.3064 33.1826,8.6923 7.1855,3.7624 12.8821,-14.0986 21.9316,-17.8921 15.0278,-6.2996 21.7511,-10.5558 51.1067,6.6389 m 78.676,114.169 c -12.1586,-8.4888 -8.4574,-26.0405 -10.6479,-40.2254 m 0.5916,0.5916 c -3.6695,-21.5227 0.089,-38.9935 -19.5212,-69.2113 m 117.7184,21.8873 c -13.0262,0.2909 -26.2328,0.3935 -40.8169,5.324 -13.6677,8.4451 -16.5361,14.1904 -17.7465,19.5211 l -7.0986,52.0563 c 0.8714,7.4676 4.9353,10.1464 8.8732,13.0141 13.2113,4.9957 26.4225,8.0713 39.6338,0.5916 m -390.4225,-148.4789 c -11.1121,-32.4654 -19.0435,-68.1115 -25.4366,-105.2958 -8.6066,-28.1938 -2.7804,-61.5422 10.6479,-97.6056 18.5857,-60.0903 47.4582,-109.8939 73.3521,-162.676 4.7564,-47.153 11.1105,-93.3028 82.2253,-98.7888 m -7.6901,318.2535 c 13.1329,-23.3981 32.2099,-48.6052 28.3943,-66.845 l -8.2816,-10.6479 c 15.3332,7.0714 30.6918,14.2989 41.4084,-7.0986 m -97.6056,387.4647 c -13.5589,9.2414 -25.864,7.199 -37.8591,2.3662 -26.2002,-20.9332 -37.6585,-43.9723 -33.0079,-69.3127 l -22.8008,-45.2448 c -2.5738,-14.332 -7.4444,-24.8358 -5.7125,-46.3439 l -70.3944,-169.7746 c -10.2037,-16.3335 -9.4511,-33.7626 -3.9378,-51.6678 15.5527,-65.0539 56.3678,-148.0648 83.797,-221.0364 6.169,-64.2396 23.3306,-100.9976 47.324,-120.6761 l 139.6056,-56.7887 130.1409,-85.1831 132.507,-78.0845 104.1127,-59.155 42.5915,-56.7887 47.324,-21.2958 16.5634,-30.7605 18.9295,-3.3463 16.5634,-13.2171 49.6901,-16.5634 c 28.6393,-1.2329 37.8305,-8.9485 54.4226,-14.1972 l 383.3239,-298.1408 c 244.0576,-164.8633 294.588,-218.7497 411.7183,-260.2817 50.615,-29.9522 110.9405,-54.5612 151.4914,-77.6067 187.6978,-106.6705 259.2941,-145.671 307.5509,-156.6468 l -2.3662,648.338 -309.9718,170.3662 c -104.0588,46.8161 -205.0462,94.6559 -321.8029,137.2394 -91.3202,29.3063 -172.258,56.5361 -283.9436,89.9155 -51.0914,13.442 -65.2671,21.2047 -168,42.5916 l -32.3641,6.8115 m 0,0 c -26.7641,8.3445 -122.6927,62.575 -126.1711,57.0758 l -57.1948,59.442 c -52.7752,62.7041 -63.0726,135.9592 -80.0447,200.8397 -22.176,33.6221 -50.6114,65.1577 -99.3802,89.9155 l -40.2254,87.5493 -47.3239,68.6197 c -13.1962,45.7465 -19.9165,91.4929 -49.6902,137.2394 l -33.1268,40.2254 c -5.1792,44.6598 -3.2429,85.7242 -24.2535,118.9014 -20.6773,1.8051 -45.541,12.7101 -65.6619,-17.1549 14.4311,16.4979 18.8128,34.4315 2.1037,55.378 m -225.1179,-41.7724 c -10.9815,14.1305 -5.7001,26.5838 9.8267,33.8928 11.1467,15.665 24.7882,23.6191 48.1032,1.6731 6.5559,16.2549 8.4744,35.553 49.3581,29.2802 30.6424,24.0348 50.0025,13.1971 68.5993,0 13.8322,-3.5411 19.867,-10.9809 22.5876,-20.0778 10.9098,6.6093 20.1875,7.0985 26.643,-2.9959"
     id="path5183"
     inkscape:connector-curvature="0"
     sodipodi:nodetypes="cccccccccccccccccccccccccccccsccccccccsssccccccccccccccccccccccccccccccccccccccccccccccccccccccccccccccccccccc" />
  <path
     style="fill:none;stroke:#000000;stroke-width:1px;stroke-linecap:butt;stroke-linejoin:miter;stroke-opacity:1"
     d="M 5934.4225,2441.9155 Z"
     id="path5185"
     inkscape:connector-curvature="0" />
  <path
     style="fill:#ffffff;stroke-width:6.69261599"
     d="m 1756.541,3104.2524 c -4.6011,-1.8566 -8.3657,-7.1396 -8.3657,-11.74 0,-4.6005 -12.0467,-31.2298 -26.7705,-59.1764 -14.7238,-27.9466 -26.7705,-58.3752 -26.7705,-67.619 0,-9.2439 -6.0022,-41.8442 -13.3383,-72.4451 -7.3361,-30.6009 -13.3595,-66.4043 -13.3852,-79.5632 -0.061,-31.029 24.5596,-102.742 58.4194,-170.1607 14.7895,-29.4475 29.1321,-66.9379 31.8726,-83.3119 5.5641,-33.2448 33.8841,-67.272 55.9888,-67.272 7.4278,0 15.3664,-3.0117 17.6414,-6.6926 5.882,-9.5173 -13.3644,-8.2792 -39.2174,2.5229 -22.8737,9.5573 -44.4403,43.8106 -44.4403,70.5827 0,7.8075 -12.1517,38.3639 -27.0037,67.9031 -42.3324,84.1951 -68.7086,169.5002 -63.8268,206.4272 3.7835,28.6191 2.4319,26.877 -19.9689,-25.7381 -28.6337,-67.255 -28.6657,-67.0131 27.336,-206.5594 20.0208,-49.8881 39.8908,-108.442 44.1556,-130.1196 12.4892,-63.4812 24.824,-75.6704 116.2729,-114.9003 44.1712,-18.9487 104.4048,-50.7825 133.8523,-70.7419 29.4475,-19.9595 108.4378,-68.2974 175.5341,-107.4177 98.8116,-57.612 126.5305,-77.0703 145.8709,-102.3997 13.1328,-17.1996 28.4891,-31.2719 34.125,-31.2719 5.6359,0 19.8035,-9.7156 31.4834,-21.5903 28.1275,-28.5966 54.9658,-42.6312 109.7285,-57.3807 42.2701,-11.3848 58.581,-22.497 239.4459,-163.1288 280.7762,-218.3182 461.7096,-341.8348 598.9891,-408.9079 60.7355,-29.6747 170.0734,-86.9822 242.9733,-127.3501 122.6234,-67.9021 205.0334,-107.697 210.8926,-101.8378 1.33,1.33 0.2114,145.5501 -2.4861,320.4891 l -4.9045,318.0709 -157.9846,86.532 c -155.9778,85.4328 -281.7351,145.2864 -412.3041,196.2342 -91.5646,35.7284 -348.5304,115.7077 -458.4442,142.6886 -211.3982,51.8924 -287.5885,116.0143 -331.1179,278.6697 -18.5699,69.3896 -37.0292,97.5492 -84.2254,128.4857 -25.9987,17.0418 -35.71,28.896 -47.6868,58.2092 -8.2718,20.2452 -27.3636,54.8794 -42.4263,76.9651 -15.1863,22.2667 -32.7774,59.5354 -39.4873,83.6577 -14.4758,52.0416 -37.3213,99.0018 -56.6684,116.4849 -7.7597,7.0121 -14.1086,16.8001 -14.1086,21.751 0,5.0287 -7.0573,9.0016 -15.9901,9.0016 -27.6328,0 -44.1895,19.872 -48.6875,58.4367 -3.7862,32.4622 -2.92,35.478 11.8923,41.4046 14.8157,5.928 14.9577,6.423 1.9548,6.8164 -21.5872,0.6532 -34.5714,-19.0723 -43.829,-66.5844 -16.0873,-82.5643 -11.9273,-123.0687 19.6442,-191.2711 15.4919,-33.4662 28.167,-66.0397 28.167,-72.3856 0,-6.3459 3.1402,-17.4057 6.9783,-24.5772 8.6885,-16.2346 1.2159,-59.6997 -10.2637,-59.6997 -4.6686,0 -28.6087,-10.1265 -53.2004,-22.5035 l -44.712,-22.5034 -37.7855,39.6141 c -31.0779,32.5819 -40.6053,38.9063 -53.6706,35.6271 -13.7067,-3.4401 -15.2823,-2.0873 -11.4889,9.8646 4.6524,14.6583 -21.3308,66.6608 -44.4666,88.9947 -10.3204,9.9627 -12.4026,22.3784 -12.4026,73.9534 0,40.5411 -2.8938,64.9521 -8.3658,70.571 -6.7449,6.9261 -5.7723,8.158 5.0195,6.358 11.672,-1.9467 13.6539,2.0235 15.4847,31.0194 3.2449,51.3908 -13.6821,105.6748 -32.2163,103.316 -1.8405,-0.2343 -7.1109,-1.945 -11.7121,-3.8016 z"
     id="path3727"
     inkscape:connector-curvature="0" />
  <path
     style="fill:#ffffff;stroke-width:6.69261599"
     d="m 1751.9996,3098.1678 c -5.7843,-5.7843 -10.5234,-14.0664 -10.5313,-18.4047 -0.01,-4.3382 -9.6172,-25.9578 -21.3541,-48.0434 -11.7369,-22.0856 -23.3422,-53.7082 -25.7895,-70.2725 -2.4474,-16.5642 -10.0527,-56.3322 -16.9007,-88.3732 -15.8113,-73.9801 -10.6019,-101.8806 39.2904,-210.4301 20.0542,-43.6312 38.57,-91.0764 41.1463,-105.4338 5.313,-29.6089 35.6829,-64.246 56.3309,-64.246 7.4278,0 15.657,-3.4818 18.287,-7.7373 7.4033,-11.9788 -37.3818,-1.0961 -52.7594,12.8205 -16.2809,14.734 -31.5439,44.0192 -31.5439,60.5235 0,7.0017 -14.6636,44.0443 -32.5858,82.3169 -44.6908,95.4367 -57.1804,136.039 -56.4034,183.3609 l 0.6593,40.1557 -23.3135,-56.1763 c -27.7733,-66.9229 -27.8798,-66.1399 28.3534,-208.5223 20.1915,-51.1247 39.5844,-108.1011 43.0953,-126.6142 6.8416,-36.0752 20.4906,-66.9926 34.7339,-78.6781 4.8439,-3.974 38.9238,-19.7166 75.7332,-34.9834 36.8094,-15.2669 106.078,-52.6537 153.9302,-83.0818 47.8522,-30.4281 130.1649,-80.4727 182.9171,-111.2102 70.5538,-41.1102 103.1244,-64.4388 123.1878,-88.2328 15.0012,-17.7905 31.5527,-32.3464 36.781,-32.3464 5.2283,0 19.0624,-9.7156 30.7423,-21.5903 27.4428,-27.9004 56.0907,-43.2714 103.4823,-55.5231 45.8331,-11.8489 52.5624,-16.4524 267.8101,-183.2048 273.2578,-211.6928 428.4387,-316.1652 593.6026,-399.6309 77.2998,-39.0634 183.9807,-95.2211 237.0688,-124.7948 86.7469,-48.324 187.5381,-98.6814 197.5127,-98.6814 4.9882,0 4.7691,139.3317 -0.6552,416.6068 l -4.4185,225.8673 -151.8622,83.2965 c -147.4827,80.8946 -279.7097,143.9729 -413.7036,197.3559 -83.1746,33.1367 -342.6057,114.0441 -462.4927,144.2353 -210.0451,52.8957 -292.3228,123.3365 -333.732,285.7199 -15.5626,61.0279 -30.7581,84.1707 -78.3516,119.3301 -26.859,19.8419 -39.8995,35.7569 -53.2501,64.9881 -9.7243,21.2912 -29.2132,56.7813 -43.3088,78.8669 -14.0956,22.0856 -31.981,61.2374 -39.7454,87.004 -7.7644,25.7666 -20.9188,57.6367 -29.2321,70.8225 -8.3133,13.1857 -21.1385,33.4955 -28.5004,45.1328 -8.1877,12.9428 -18.9444,21.1751 -27.7022,21.201 -26.0342,0.077 -42.6069,20.691 -47.0143,58.479 -3.7862,32.4622 -2.92,35.478 11.8923,41.4046 14.8157,5.928 14.9577,6.423 1.9548,6.8164 -21.8851,0.6619 -36.3282,-21.2138 -44.5536,-67.4824 -14.1338,-79.504 -10.5251,-124.0723 14.2808,-176.3739 40.7961,-86.0157 56.1391,-170.6617 30.9342,-170.6617 -4.6491,0 -28.5734,-10.1265 -53.165,-22.5035 l -44.712,-22.5034 -37.7855,39.6141 c -31.0779,32.5819 -40.6053,38.9063 -53.6706,35.6271 -13.523,-3.394 -15.2591,-2.0142 -11.6747,9.2792 4.775,15.0448 -13.7721,55.3128 -39.632,86.0455 -15.4799,18.397 -17.0512,25.757 -17.0512,79.8666 0,38.6382 -2.9425,62.6235 -8.3658,68.1924 -6.7449,6.9261 -5.7723,8.158 5.0195,6.358 11.672,-1.9467 13.6539,2.0235 15.4847,31.0194 2.361,37.3921 -9.0724,91.15 -20.9995,98.736 -11.4265,7.2676 -15.7273,6.4368 -27.4703,-5.3062 z"
     id="path3729"
     inkscape:connector-curvature="0" />
  <path
     style="fill:#ffffff;stroke-width:6.69261599"
     d="m 1804.1935,2964.2858 c -9.8357,-31.4243 -1.7509,-38.4207 14.954,-12.9409 12.8648,19.6226 13.1297,22.0802 3.0578,28.3702 -9.1099,5.6892 -12.2414,3.0067 -18.0118,-15.4293 z"
     id="path3731"
     inkscape:connector-curvature="0" />
  <path
     style="fill:#ffffff;stroke-width:6.69261599"
     d="m 1828.6086,2946.3889 c -29.2583,-44.5268 -37.929,-99.4029 -18.4865,-116.9982 10.7871,-9.7621 13.3315,-9.9706 18.6707,-1.5297 10.2256,16.1664 7.2866,45.4134 -5.2698,52.4403 -6.411,3.5878 -9.716,8.4636 -7.3444,10.8352 2.3716,2.3716 10.3249,0.5569 17.674,-4.0327 11.7618,-7.3453 17.4714,-4.904 47.6777,20.3861 47.3002,39.602 60.5755,64.2255 30.5653,56.6934 -10.4617,-2.6257 -22.9735,-0.1537 -33.2276,6.5651 -9.046,5.9272 -18.8603,10.7767 -21.8095,10.7767 -2.9492,0 -15.7517,-15.8113 -28.4499,-35.1362 z"
     id="path3733"
     inkscape:connector-curvature="0" />
  <path
     style="fill:#ffffff;stroke-width:6.69261599"
     d="m 1896.08,2910.0432 c -54.9105,-54.0452 -71.8623,-95.5446 -53.2731,-130.4171 6.539,-12.267 12.0154,-27.5741 12.1697,-34.0157 0.4114,-17.1777 31.5928,-15.6466 37.1376,1.8235 5.9301,18.6838 -2.9114,54.7544 -15.9843,65.2121 -9.6379,7.7097 -9.2176,8.4591 3.8065,6.7882 11.0059,-1.4119 22.3012,7.9787 45.5002,37.8281 26.6247,34.2572 30.5856,43.3706 28.8616,66.4061 -1.099,14.6848 -5.0098,27.1125 -8.6908,27.6171 -3.6809,0.5046 -25.9682,-18.0545 -49.5274,-41.2423 z"
     id="path3735"
     inkscape:connector-curvature="0" />
  <path
     style="fill:#ffffff;stroke-width:6.69261599"
     d="m 1905.4517,3175.6354 c -7.3618,-3.1692 -21.3074,-7.4499 -30.9902,-9.5127 -10.793,-2.2994 -19.1244,-9.5608 -21.5318,-18.7667 -3.1121,-11.9009 -5.6384,-13.3046 -12.1771,-6.7658 -12.0957,12.0956 -28.6083,10.0856 -42.4073,-5.1621 -10.5059,-11.6089 -10.9903,-15.8837 -3.6021,-31.79 4.6949,-10.1076 12.1817,-39.4592 16.6375,-65.2258 l 8.1015,-46.8483 h 23.4635 c 12.905,0 28.0394,-3.7648 33.6322,-8.3663 14.6595,-12.061 88.786,-3.433 102.7122,11.9553 5.8542,6.4687 12.3617,29.3893 14.4612,50.9345 2.0995,21.5452 8.163,44.1772 13.4746,50.2934 13.6722,15.7432 8.6647,48.3611 -7.9077,51.5094 -7.2684,1.3809 -23.7788,9.6888 -36.6898,18.462 -24.8363,16.8767 -35.5113,18.6099 -57.1767,9.2831 z"
     id="path3737"
     inkscape:connector-curvature="0" />
  <path
     style="fill:#ffffff;stroke-width:6.69261599"
     d="m 2041.113,3091.5313 c -5.5036,-5.5036 2.2163,-58.3826 9.9533,-68.1774 3.6346,-4.6011 14.7971,-8.3657 24.8056,-8.3657 17.9818,0 18.1354,0.3766 12.9647,31.7899 -2.8779,17.4845 -5.4121,35.5545 -5.6316,40.1557 -0.3926,8.233 -34.7084,11.9811 -42.092,4.5975 z"
     id="path3841"
     inkscape:connector-curvature="0" />
  <path
     style="fill:#ffffff;stroke-width:6.69261599"
     d="m 2041.113,3091.5313 c -5.5036,-5.5036 2.2163,-58.3826 9.9533,-68.1774 3.6346,-4.6011 14.8569,-8.3657 24.9386,-8.3657 19.6842,0 19.2253,-2.498 10.1439,55.2141 -3.4706,22.0557 -6.2105,25.0973 -22.6084,25.0973 -10.2625,0 -20.3549,-1.6958 -22.4274,-3.7683 z"
     id="path3843"
     inkscape:connector-curvature="0" />
</svg>
