<?xml version="1.0" encoding="UTF-8" standalone="no"?>
<!-- Created with Inkscape (http://www.inkscape.org/) -->

<svg
   xmlns:dc="http://purl.org/dc/elements/1.1/"
   xmlns:cc="http://creativecommons.org/ns#"
   xmlns:rdf="http://www.w3.org/1999/02/22-rdf-syntax-ns#"
   xmlns:svg="http://www.w3.org/2000/svg"
   xmlns="http://www.w3.org/2000/svg"
   xmlns:sodipodi="http://sodipodi.sourceforge.net/DTD/sodipodi-0.dtd"
   xmlns:inkscape="http://www.inkscape.org/namespaces/inkscape"
   version="1.1"
   id="svg10"
   width="5376"
   height="4032"
   viewBox="0 0 5376 4032"
   sodipodi:docname="bottle_without_cap.svg"
   inkscape:version="0.92.4 (5da689c313, 2019-01-14)">
  <metadata
     id="metadata16">
    <rdf:RDF>
      <cc:Work
         rdf:about="">
        <dc:format>image/svg+xml</dc:format>
        <dc:type
           rdf:resource="http://purl.org/dc/dcmitype/StillImage" />
        <dc:title />
      </cc:Work>
    </rdf:RDF>
  </metadata>
  <defs
     id="defs14" />
  <sodipodi:namedview
     pagecolor="#ffffff"
     bordercolor="#666666"
     borderopacity="1"
     objecttolerance="10"
     gridtolerance="10"
     guidetolerance="10"
     inkscape:pageopacity="0"
     inkscape:pageshadow="2"
     inkscape:window-width="1366"
     inkscape:window-height="705"
     id="namedview12"
     showgrid="false"
     inkscape:zoom="0.26636904"
     inkscape:cx="2348.2459"
     inkscape:cy="2049.7876"
     inkscape:window-x="-8"
     inkscape:window-y="-8"
     inkscape:window-maximized="1"
     inkscape:current-layer="svg10"
     inkscape:snap-text-baseline="true"
     inkscape:snap-center="false" />
  <path
     id="path20"
     style="opacity:1;fill:none;stroke:#000000;stroke-width:9;stroke-linecap:butt;stroke-linejoin:miter;stroke-miterlimit:4;stroke-dasharray:none;stroke-opacity:1"
     d="m 2862.5859,520.76758 c -104.4138,-0.25435 -200.4553,6.22551 -275.8027,25.4082 -25.1333,3.15908 -34.6289,14.88863 -41.4082,28.10742 l -5.8828,-0.21289 c -4.4931,105.31634 41.4844,90.7652 66.6348,125.67578 17.9116,169.13105 53.2077,349.34071 35.2753,512.37111 -45.9466,71.4971 -53.4306,99.7501 -105.8281,132.1211 -115.1803,62.1322 -232.2124,122.7434 -333.168,196.5703 -141.5895,137.7341 -132.4803,281.1446 -153.3085,383.9336 l 80.2363,1423.4726 c -4.4635,75.6438 25.9087,127.4209 51.5156,182.4629 92.157,100.1363 206.8015,186.4066 382.1602,235.2403 390.7102,112.4471 562.2981,34.7354 774.123,-8.0567 167.1755,-55.4339 240.2887,-121.8545 315.5274,-185.291 45.5493,-80.4836 66.2551,-165.0516 86.2304,-249.7402 l 101.9102,-1487.166 c -2.5204,-101.8239 -53.0505,-196.2469 -139.1465,-285.1875 -97.5604,-83.4235 -224.4683,-154.7831 -352.7637,-225.5723 -45.3466,-61.3294 -72.8099,-105.5008 -92.1113,-154.6777 6.0246,-139.242 52.8593,-306.00841 78.2695,-460.07816 l 5.6035,0.0879 c -1.8347,-0.25931 -3.6574,-0.50476 -5.4902,-0.76172 0,-0.0201 0.01,-0.0404 0.01,-0.0606 56.3837,-19.25143 63.7911,-63.79936 69.2265,-103.99414 3.3032,-18.98853 -12.6034,-37.97827 -38.8007,-56.9668 -156.8635,-10.50584 -340.1261,-27.28876 -503.0118,-27.68554 z m 708.4258,2079.92582 c 2.8284,0.05 5.8322,0.4046 9.2071,0.8652 3.922,0.5353 9.6059,0.5498 12.2656,3.8125 3.9961,4.9021 5.3448,11.4633 8.0176,17.1953 -0.5013,5.4811 -0.1429,10.9874 -0.2637,16.4766 -0.012,0.5552 -0.056,-1.1095 -0.084,-1.6641 0,0.948 0.4181,12.1445 0.1211,12.1738 -2.494,0.2455 -5.4994,-0.1567 -8.6973,-0.8379 -3.5902,0.043 -6.7228,-0.053 -9.4707,-0.2265 v 4.1523 c 6.5121,-1.2638 13.3214,-2.6427 18.1563,-1.75 1.5387,0.2841 0,3.1287 0,4.6934 -4e-4,1.7557 -10e-5,3.5119 0,5.2676 3.8169,4.4433 12.2287,19.4668 8.8066,21.0898 -1.8644,0.8842 -4.0452,1.3131 -6.3926,1.4766 -5.1125,1.7266 -13.2184,1.1937 -20.5703,1.3515 v 7.2598 c 8.4162,-1.4933 19.8265,-4.7457 25.334,-0.9824 0.7206,9.3232 -1.3124,18.1812 -11.0059,25.0566 0.023,0.273 0.036,0.5469 0.055,0.8203 0.116,-0.01 0.1551,0.02 0.012,0.1485 0.2651,4.0249 0.137,8.0898 0.027,12.1484 1.7313,3.6066 3.702,8.2594 4.0684,9.5703 0.4903,1.7544 0.406,3.6194 0.6093,5.4297 -1.7087,6.1937 -1.1313,11.9566 -0.9511,18.293 0.1411,7.68 -0.01,15.3602 -0.01,23.041 0.023,7.5289 0.02,15.0589 0.016,22.5879 0,3.5138 -0,7.0272 -0,10.541 0.3534,0.5144 0.9489,1.9312 1.7734,3.5801 5.3932,9.3787 1.2419,19.2671 1.748,29.041 0.4786,6.9909 0.2839,14.0176 0.2325,21.0215 0.195,7.3792 -0.1914,11.9075 -3.961,19.4726 -0.719,1.4431 -1.7966,2.6514 -2.914,3.836 -4.3088,12.1409 -0.1555,4.0075 -18.5449,15.082 -1.066,0.6419 4.3878,-1.6979 3.6699,-0.6816 -0.9706,1.3739 -3.1445,1.2238 -4.6211,2.0293 -0.1365,0.074 0.034,0.3083 0.051,0.4628 -2.2505,1.1276 -4.4995,2.2553 -6.75,3.3829 -6.7632,2.6495 -13.3025,2.2959 -20.1524,1.4628 -8.9398,6.0725 -20.2033,3.7054 -30.8418,3.1016 -4.7926,0.161 -9.584,0.2677 -14.3769,0.3066 -2.3439,1.4499 -4.721,2.8532 -7.3262,3.6915 -4.8193,1.5506 -7.9665,2.4649 -10.0625,2.9921 -7.024,2.5297 2.5383,-0.5335 -11.1152,1.5079 -0.8086,0.1209 1.6113,0.3949 2.4277,0.3515 0.6408,-0.034 2.402,-0.8805 1.8359,-0.5781 -5.4654,2.92 -8.5011,3.0926 -5.0449,2.7598 -7.568,1.1766 -13.7801,6.2685 -21.2148,7.8281 -7.3746,1.547 -14.0302,1.4108 -21.2188,0.5566 -0.088,0.7173 -3.6237,2.2246 -6.5449,3.166 -3.2946,1.6627 -6.7298,3.0536 -10.0703,4.627 -11.2094,0.082 -6.0592,0.3148 -12.7695,-0.4141 0.553,0.4721 -1.3666,1.2473 -3.6094,1.9688 -0.9781,0.687 -2.1124,1.374 -2.7949,1.7226 -3.6607,1.8697 -7.7644,2.7167 -11.545,4.3301 -0.2063,0.088 0.7773,0.2608 0.5723,0.3516 -4.9935,2.2094 -7.8002,2.3173 -13.3145,3.291 -1.1982,0.01 -2.3987,-0.019 -3.5976,-0.027 0.091,0.071 0.1642,0.1513 0.1953,0.2559 0.3303,1.1119 -2.0969,1.0083 -3.2031,1.3574 -2.2765,0.7185 -4.5642,1.4637 -6.9219,1.8379 -2.4932,0.3957 -5.058,0.1151 -7.5586,0.461 -1.0234,0.1416 2.0639,0.1039 3.0957,0.1562 -10.9008,4.3039 4.5039,-1.6092 -8.625,2.5059 -0.1213,0.9042 -3.4635,2.5827 -4.6074,3.7324 -4.1023,1.6891 -7.984,4.0679 -12.3067,5.0664 -4.517,1.0434 -9.3617,-0.1322 -14.1074,-0.834 -0.2488,0.1308 -0.5888,0.3098 -0.7871,0.416 -7.231,3.8754 -14.9868,4.5235 -22.5976,6.9571 -0.4472,0.143 -0.6708,0.6575 -1.0059,0.9863 -7.048,4.0451 -14.4966,3.9879 -22.1426,3.0762 -9.7277,5.9373 -20.435,3.8258 -31.0898,3.1836 -7.503,0.1937 -15.0065,0.3149 -22.5117,0.3066 -2.5313,1.6748 -5.0719,3.1496 -6.5411,3.6699 -5.1063,1.8085 -10.971,0.8798 -16.1875,0.4121 -6.1128,-0.9933 -12.2899,-0.5189 -18.4394,-0.3183 -3.0171,0.5984 -6.2039,-0.6266 -9.2149,-0.018 -0.7522,0.1521 2.6306,-0.1 2.2325,0.5566 -1.0164,1.6752 -13.3135,2.7283 -9.4629,3.7442 -10.0553,6.0102 -20.9526,3.1273 -31.7774,2.9336 0.5085,-0.056 -0.573,-0.021 -1.9062,0.029 0.2845,1.408 -2.5964,1.4659 -3.9727,1.9863 -8.2492,3.119 -7.3473,2.3951 -16.1718,2.9355 -7.2529,-1.3676 -14.47,-1.1915 -21.7872,-0.9589 -3.2998,0.4567 -6.6989,-0.4613 -9.9863,0.064 -0.3091,0.049 0.4799,0.7336 0.2227,0.9121 -1.0822,0.751 -2.4122,1.0743 -3.666,1.4785 -6.9974,2.2555 -6.0415,1.6768 -13.9122,2.2285 -4.5076,-0.5263 -8.9458,-1.168 -13.4726,-1.1582 -13.0719,6.733 -26.949,4.5879 -40.8848,3.6914 -8.9847,0.4521 -17.982,0.3679 -26.9746,0.3262 -0.044,0.02 -0.086,0.044 -0.1308,0.064 0.4541,6.3932 0.2988,12.4694 -2.3204,19.0215 -0.4912,0.9071 -0.6554,2.0937 -1.4746,2.7207 -0.397,0.3038 0.023,-1.9706 -0.1289,-1.4942 -1.0731,3.3676 -1.6019,6.8907 -2.664,10.2617 -1.9545,6.2035 -5.9533,12.8369 -10.502,17.5899 -0.4141,3.2693 -1.3895,6.4904 -2.6289,9.5371 -1.342,3.299 -3.7187,6.0738 -5.5781,9.1113 -2.0416,2.2924 -3.6539,5.0558 -6.125,6.877 -0.652,0.4804 0.5242,-3.1099 0.088,-2.4278 -1.5148,2.3659 -2.2047,5.1718 -3.4551,7.6875 -1.4293,2.8758 -3.4606,5.4306 -5.5156,7.8985 -0.7397,0.8883 1.0819,-2.0429 1.623,-3.0645 -1.8312,2.9066 -3.4651,5.9467 -5.4941,8.7188 -1.5785,2.1565 -3.8451,3.7154 -5.7246,5.6152 -5.4585,5.5172 -10.7977,11.87 -18.5176,14.041 -6.6858,2.9094 -10.1162,4.4665 -12.2227,5.4512 -0.4714,0.2973 -1.0729,0.6075 -1.6035,0.8574 -3.2232,7.3796 -7.103,14.2631 -15.6582,17.711 -4.4913,1.81 -9.6836,0.1367 -14.5254,0.205 -4.4669,-3.4452 -10.9585,-5.2507 -13.4004,-10.3359 -7.9094,-16.4716 -0.8259,-25.4784 10.9981,-35.334 2.0655,-1.7216 4.0208,-2.9628 5.9023,-3.9062 1.8369,-3.506 3.2223,-4.1092 7.6875,-6.6622 0.7785,-1.1525 1.6657,-2.3198 2.0977,-3.4296 1.7632,-2.7238 3.2826,-5.6058 5.1465,-8.2618 0.6493,-0.9254 1.6336,-1.5804 2.291,-2.5 3.2169,-4.4998 5.2818,-9.4328 8.25,-14.121 1.4835,-2.3432 3.2578,-4.4879 4.8867,-6.7325 8.8435,-9.1633 13.0675,-22.2512 22.7559,-30.8515 5.4234,-1.8002 -0.2402,0.504 5.4375,-11.7032 2.1589,-4.6419 4.7386,-9.1435 7.7265,-13.3574 -1.3415,0.01 -2.4677,-0.09 -3.1621,-0.3554 -3.5445,-1.3537 -6.8964,-3.1467 -10.25,-4.9376 0.015,0.032 0.038,0.054 0.049,0.09 0.2044,0.6712 -1.3769,0.2679 -2.0722,0.3613 -1.4115,0.1894 -2.8354,0.6818 -4.2461,0.4864 -4.4743,-0.6196 -8.8225,-1.9376 -13.2344,-2.9063 -12.0407,-5.7294 -2.2968,-1.9106 -5.5664,-1.3691 -2.8172,0.4666 -5.4194,0.583 -8.2891,0.8007 -7.9145,0.098 -15.8196,-0.2469 -23.7363,-0.1914 -7.5591,0.079 -15.1184,0.038 -22.6777,0.029 -7.502,5e-4 -15.0039,0 -22.5059,0 -7.5076,0 -15.0158,-10e-5 -22.5234,0 h -22.5254 c -7.5084,1e-4 -15.017,0 -22.5254,0 h -22.5234 -22.5254 c -10.0078,0.1412 -17.8216,0.8264 -25.918,-4.2832 -0.4807,0.024 -1.1506,-0.1094 -1.5742,-0.055 -1.4048,0.1815 -2.8489,0.8142 -4.2227,0.4688 -9.4185,-2.3685 -11.8788,-2.6876 -14.1894,-4.2715 -0.2012,-0 -0.3929,-0.01 -0.5313,0.014 -1.3268,0.18 -2.6662,0.632 -3.9922,0.4453 -11.4919,-1.6182 -10.473,-1.6031 -18.1113,-5.25 -0.1871,0.048 -0.6442,-0.033 -0.5625,0.1426 0.1527,0.3267 1.2567,0.6785 0.9063,0.5937 -3.38,-0.8176 -6.7216,-1.7938 -10.0489,-2.8047 -2.4686,-0.75 -2.8226,-2.1059 -4.1992,-0.7246 -7.6508,1.2048 -15.4056,0.8808 -23.1133,0.6992 -7.5363,-0.082 -5.149,0.2946 -13.5761,-4.6406 -0.074,0.046 -0.6931,0.078 -2.2149,0.3223 -8.3883,1.2931 -16.8631,0.6362 -25.2988,0.5117 -8.7286,0.4021 -10.9674,-1.0092 -19.5039,-5.6445 -0.031,0.2484 -1.3651,-0.4124 1.8594,1.0195 -4.9177,3.1122 -18.9361,-4.8163 -20.6856,-4.0859 -0.1634,0.068 0.206,0.2893 0.3086,0.4336 -0.41,0.091 -0.8205,0.1837 -1.2305,0.2753 -8.1705,1.1852 -16.4291,0.6331 -24.6445,0.5079 -13.5739,0.8425 -23.316,-5.3903 -33.627,-12.0254 -6.7538,-74.9648 1.3293,8.3843 -6.9707,-22.6719 -0.7606,-2.8462 -0.8589,-5.8295 -1.289,-8.7441 0.055,-0.956 0.1335,-1.9098 0.2051,-2.8653 -0.06,0.076 -0.126,0.1385 -0.2012,0.1836 -0.9582,0.5745 -0.9506,-2.0305 -1.2871,-3.0957 -1.5992,-5.0619 -2.1643,-9.721 -2.1465,-14.6699 -2.1109,-4.3845 -3.3194,-9.2408 -4.0957,-12.3711 -0.5402,-2.1783 0.3281,-4.4766 0.4922,-6.7149 1.0729,-7.2017 0.5087,-14.4618 0.375,-21.6992 -0.01,-9.043 0.075,-18.0858 0.057,-27.1289 -0.02,-7.3785 -0.01,-14.7582 -0.01,-22.1367 -3e-4,-7.4845 -0,-14.9687 -0,-22.4531 3e-4,-7.5105 10e-5,-15.0209 0,-22.5313 v -22.5254 -22.5254 -22.5253 c 0,-1e-4 0,-3.7542 0,-7.5079 0,-0.5753 -7e-4,-1.0529 -0,-1.5664 -15.4249,-12.6899 -4.5564,-36.5467 24.3438,-29.9843 l -0,0.012 c 14.628,3.3215 23.318,0.4343 35.5879,6.8574 -0,-1.1878 5.9117,-2.1717 5.9395,-1.4375 0.1944,5.1464 -2.3029,12.6303 -4.4043,19.5371 2.5456,0.3678 5.0899,0.7443 7.6367,1.1035 -0.4675,-13.0762 -0.4812,-13.7621 0.037,0 0.4107,0.058 0.8218,0.1123 1.2324,0.17 -0.4731,-7.2373 -1.8227,-15.4039 -0.9101,-21.1739 12.2418,0.3155 24.6116,-1.9479 34.2285,5.7969 4.5824,1.266 11.6883,3.2978 13.0254,2.6231 6.6172,-1.7304 12.8207,2.4305 18.7441,4.6074 0.2225,0.082 -0.097,-0.5754 0.1016,-0.7051 0.4215,-0.2757 0.9883,-0.1937 1.4824,-0.291 8.1842,-1.2173 16.4568,-0.6388 24.6875,-0.5137 7.4223,-0.017 14.8452,-0.069 22.2676,-0.057 1.2289,0 3.5977,-1.1921 3.7461,-0.053 0.3408,-1.4224 3.1269,0.061 4.664,0.062 10.0745,0 3.8586,-0.6138 18.2325,4.3457 0.015,0.011 0.03,0.022 0.045,0.033 0.1634,-0 0.3601,-0.01 0.4707,-0.021 3.9436,-0.5513 5.1869,-0.5447 9.3262,-0.8086 7.7934,0 15.5738,0.2963 23.3691,0.2343 6.9478,-0.081 13.8959,-0.029 20.8438,-0.023 11.0986,-0.563 22.2808,0.4461 32.6699,4.707 12.0904,4.9586 4.1566,3.2844 11.1347,4.5059 6.6436,-1.0195 13.1802,1.7135 19.7032,2.6094 1.2877,0.1768 2.6264,-0.09 3.8945,0.1953 7.1856,1.616 8.546,2.3625 14.1367,4.6855 0.1261,-0.7503 -1.9581,-0.4421 -1.5801,-0.9199 0.7494,-0.9473 14.1726,-0.9698 15.9161,-0.9648 7.4081,0.3188 14.8224,0.2345 22.2343,0.1875 7.5528,-0.021 15.1053,0.01 22.6582,0.01 7.51,-0.01 15.0194,0 22.5293,0 7.5077,3e-4 15.0158,0 22.5235,0 h 3.7539 4.2246 c 7.461,-4.7903 14.738,-5.0025 23.6582,-4.1094 1.4094,0.1412 2.8337,0.7493 4.2226,0.4708 0.5406,-0.1085 -1.7053,-0.7273 -1.2675,-1.0625 1.3289,-1.0176 3.1722,-1.0731 4.7578,-1.6094 10.5279,-4.1738 21.2429,-0.744 31.9101,-0.9629 7.5951,-0.3508 15.1969,-0.2981 22.7969,-0.2383 8.8489,0.04 17.698,0 26.5469,0 7.3702,0.01 14.7412,0 22.1113,0 4.7481,-5e-4 9.4961,-1e-4 14.2442,0 9.1965,-5.9276 19.2371,-4.3565 29.33,-3.6523 -0.038,-0.8852 2.6968,-1.1964 3.877,-1.6641 6.4215,-2.5451 12.0698,-3.1868 18.4551,-2.8457 1.6948,-1.0642 3.4273,-2.0523 5.3066,-2.7051 7.0292,-2.4413 13.3324,-0.1459 8.4375,-1.7617 5.2619,-2.1198 10.7517,-3.0132 16.3711,-3.0898 1.8714,-1.1077 3.759,-2.1746 5.8164,-2.8379 9.8955,-3.1903 22.5163,0.261 32.1504,2.6152 2.2152,-2.7161 15.1383,9.4642 18.1523,6.8359 0.2029,-0.1769 -0.6003,-0.5753 -0.3711,-0.7168 2.0195,-1.2474 4.6445,-0.9923 6.9825,-1.4023 10.8349,-0.9344 21.6766,0.1138 32.5312,0.047 7.5053,-0.1515 15.0115,-0.1034 22.5176,-0.082 7.3052,0.01 14.6107,-0.01 21.916,-0.01 2.2235,-1.6857 5.3564,-1.7134 7.9453,-2.791 7.2036,-2.9986 -1.7598,-1.1276 9.2949,-4.3125 2.7409,-0.7897 5.5947,-1.1109 8.3926,-1.6661 9.0025,0.5585 7.6705,0.3336 8.5313,0.586 1.4537,-0.9385 6.98,-2.2448 9.5703,-3.0391 7.2296,-8.2559 13.7834,-8.6266 25.6894,-8.748 0.3254,0.057 0.6543,0.1006 0.9825,0.1465 0.2039,-0.2545 1.3726,-0.5325 1.8652,-0.709 5.7875,-2.0736 11.081,-2.6605 16.9297,-2.5508 5.5926,-3.2064 14.0397,-7.1665 15.2187,-4.0996 1.729,4.497 2.5412,9.219 2.9766,14.0332 0.4864,-0.083 0.9725,-0.1649 1.459,-0.2481 0.079,-3.9526 0.2325,-7.9016 0.5469,-11.8418 -0.9134,-0.2017 -1.9264,-0.4379 -3.168,-0.7519 -0.6033,-0.1525 0.9657,-0.8066 1.5312,-1.0664 7.5397,-3.4655 6.2193,-0.5061 7.3926,-3.4434 5.8901,-3.6072 12.1661,-3.7467 18.6211,-3.8711 -0.2218,-0.091 -0.3966,-0.2123 -0.4766,-0.3828 3.2835,-1.3469 3.6482,-0.2906 2.8457,-1.7656 2.0221,-1.1333 3.8987,-2.5794 6.0665,-3.4004 3.0616,-1.1595 6.2512,-2.092 9.5,-2.4961 0.6391,-0.08 1.557,-0.2303 2.5117,-0.3809 1.1738,-1.6818 2.472,-3.2448 4.0429,-4.5488 5.876,-4.8775 30.4486,-1.7041 38.4356,-1.3379 6.6757,-2.0139 12.9444,-5.6608 19.7305,-7.2754 2.5824,-0.6144 5.2464,-0.8189 7.8691,-1.2285 4.0288,-1.9304 8.0189,1.3836 11.9844,0.8242 0.7895,-0.1114 -2.7478,-0.4484 -2.1719,-1 2.486,-2.3813 12.7053,-3.1565 17.1074,-3.4726 -0.5374,-0.05 -0.3172,-0.085 1.3184,-0.1 -0.2886,0.022 -0.9186,0.071 -1.3184,0.1 0.653,0.061 2.4836,0.1452 4.5039,0.2422 0.8046,-0.3191 2.3863,-0.6466 3.0371,-1.0684 0.3821,-0.2476 0.573,-0.7085 0.8594,-1.0625 2.1941,-1.2312 4.3879,-2.4622 6.582,-3.6933 12.5022,-3.0993 7.7319,-2.4998 12.2793,-2.1563 0.5668,-0.4775 1.0874,-0.9344 1.4024,-1.2949 6.6135,-4.9224 11.9886,-6.2806 18.2109,-6.1699 z m -679.2832,528.6601 c 0.021,-0.049 0.041,-0.098 0.062,-0.1465 -1.7491,0.8461 -1.1048,0.6374 -0.062,0.1465 z m 0.062,-0.1465 c 0.2966,-0.1434 1.0969,-0.5033 1.541,-0.7109 0.8947,-0.5643 1.1415,-1.007 -0.9316,-0.6895 -0.199,0.47 -0.4062,0.9336 -0.6094,1.4004 z m 699.7871,-480.4922 c 2.6542,-0.032 5.5271,-0.1293 8.6914,-0.3359 0.06,-7.3165 -8.5354,-5.3 -18.1621,-2.5977 v 0.4903 c 3.1709,0.8813 6.4043,1.7902 9.4707,2.4433 z m -37.3086,-40.4746 c -0.013,0.011 -0.026,0.022 -0.039,0.033 0.05,0 0.1224,10e-4 0.1738,0 -0.046,-0.011 -0.09,-0.023 -0.1348,-0.035 z m 27.8379,25.5938 v 4.1094 c 3.4707,0.044 5.2093,-0.6803 0,-4.1094 z m -157.6719,2.3047 c -0.3038,0 -0.5932,0.024 -0.8847,0.043 -2.6237,4.5465 -9.7172,14.5875 -6.2949,11.7012 3.6661,-3.092 5.8608,-7.5785 8.4218,-11.7168 -0.4194,-0.016 -0.8359,-0.029 -1.2422,-0.027 z m -795.2128,40.5449 c -4.6763,-0.1233 -2.452,7.3921 0.3007,15.7539 0.4445,-4.4837 1.1183,-9.5747 2.0879,-15.2187 -0.5429,-0.2235 -1.1461,-0.3949 -1.8379,-0.4883 -0.1939,-0.026 -0.3763,-0.042 -0.5507,-0.047 z m 2.5214,0.582 c 0.4659,9.5103 0.5329,16.9957 0.3731,22.7188 0.2524,0.023 0.5053,0.042 0.7578,0.064 2.008,-9.9852 4.7847,-20.1917 -1.1309,-22.7832 z m 24.8028,5.2559 c 0.9382,0.6973 1.874,1.3977 2.8203,2.084 0.9197,0.6669 -1.7277,-1.5018 -2.7266,-2.043 -0.03,-0.016 -0.063,-0.026 -0.094,-0.041 z m -194.0703,190.7383 c -0.2642,0.032 -0.139,0.2105 0.5371,0.58 3.4974,1.9116 6.7474,3.0579 9.6465,4.0704 l -0.074,-1.2735 c -3.5165,-1.7759 -9.1836,-3.4884 -10.1093,-3.3769 z m 1136.8496,16.4961 c -0.9205,2.3641 -1.6106,4.2554 -2.1739,5.8418 0.072,-0.109 0.1554,-0.227 0.2051,-0.3184 0.9336,-1.7171 1.3126,-3.6822 1.9688,-5.5234 z m -2.2227,5.916 c -0.8693,0.9204 -1.7599,1.8274 -2.5273,2.8183 -0.7883,1.0178 1.5797,-1.4285 2.5273,-2.8183 z M 2580.5,2970.5059 c 0.4075,0.3318 0.8228,0.6533 1.2578,0.9472 0.9484,0.6407 1.7624,0.8163 2.0156,0.9004 -0.9107,-0.5323 -2.0872,-1.1859 -3.2734,-1.8476 z M 3311.6172,2973 c -0.4082,-0.01 -0.8146,-0.011 -1.2188,0 -0.4664,0.015 0.9325,0.05 1.3985,0.074 0.041,-0.018 0.08,-0.044 0.1211,-0.062 -0.1,-0 -0.201,-0.011 -0.3008,-0.014 z m -659.6582,6.3105 c -0.1887,2.5519 1.5371,2.8505 3.2715,3.084 -0.864,-0.7886 -1.8476,-1.7405 -3.2715,-3.084 z m 19.0058,3.5196 c -2.9005,4.3757 1.211,3.6648 4.1602,3.6152 -1.3692,-1.0218 -2.7521,-2.2071 -4.1602,-3.6152 z m 269.3848,5.666 c -0.017,0.2509 -0.039,0.5023 -0.047,0.7519 0.1245,-0.2493 0.2637,-0.4942 0.3926,-0.7421 -0.1153,-0 -0.2304,-0.01 -0.3457,-0.01 z m -26.0898,4.3828 c 0.3834,0.3303 0.7784,0.6444 1.1953,0.9297 0.3529,0.2415 0.8686,0.2994 1.3457,0.3828 -0.8422,-0.448 -1.6931,-0.8776 -2.541,-1.3125 z m 126.7422,13.9941 c -1.1041,0.026 -4.4147,0.1367 -3.3106,0.1075 1.1537,-0.031 2.3075,-0.07 3.4609,-0.1075 -0.05,0 -0.1001,-0 -0.1503,0 z m -156.5,76.4278 c -0.8519,0.113 -7.1515,3.2889 -9.0879,5.1269 -0.374,0.355 -0.6813,0.9241 -0.9473,1.5899 2.3819,-1.4051 5.4538,-3.3155 9.6348,-6.252 0.5042,-0.3541 0.5969,-0.4909 0.4004,-0.4648 z" />
  <path
     style="fill:#ffffff;stroke-width:10.61845303"
     d="m 3180.4655,682.05611 c -96.7764,-12.86698 -357.7003,-16.28149 -477.9915,-6.25511 -94.0235,7.83695 -102.6836,6.88695 -124.7668,-13.6867 -15.4753,-14.41741 -23.7304,-34.53142 -23.7304,-57.82039 0,-30.50479 5.0321,-37.63641 34.51,-48.90843 78.067,-29.85199 725.3502,-19.79382 785.1316,12.2002 30.8496,16.51021 19.8249,93.70277 -16.8834,118.21353 -14.6028,9.75057 -86.2176,8.22981 -176.2695,-3.7431 z"
     id="path4081"
     inkscape:connector-curvature="0" />
  <path
     style="fill:#ffffff;stroke-width:10.61845303"
     d="m 3185.7748,682.23153 c -87.1699,-12.19024 -395.2487,-15.6419 -499.0673,-5.59146 -78.0587,7.55668 -86.8852,6.40468 -108.8392,-14.20519 -15.5946,-14.63989 -23.8915,-34.83064 -23.8915,-58.14097 0,-30.49854 5.0381,-37.64316 34.51,-48.93888 78.5013,-30.08733 725.0661,-19.91544 785.3649,12.35552 30.6281,16.39163 19.4238,93.6899 -17.1167,118.08866 -14.5022,9.68338 -87.0273,8.16988 -170.9602,-3.56768 z"
     id="path4083"
     inkscape:connector-curvature="0" />
  <path
     id="path840"
     style="fill:#ffffff;stroke-width:40.13273621;stroke-miterlimit:4;stroke-dasharray:none"
     d="m 2905.3398,685.625 c -127.4083,-0.25775 -272.004,10.34979 -284.3984,22.74414 -2.3154,2.31547 3.5189,65.71461 12.9668,140.88672 9.4478,75.17209 17.8056,186.85024 18.5723,248.17184 1.2936,103.4707 -0.6784,115.0106 -27.4121,160.3711 -38.5334,65.3815 -50.726,75.2517 -184.3653,149.2578 -280.9687,155.5933 -330.4292,213.5935 -368.3144,431.9063 -12.8378,73.9777 -10.1321,155.2625 27.6543,830.3008 40.9438,731.443 42.4891,749.6585 68.5996,808.8008 64.6767,146.4986 299.2061,274.3583 592.3945,322.9609 125.2725,20.7667 290.6919,11.0494 459.9805,-27.0215 159.4272,-35.8531 262.4109,-80.3207 358.2871,-154.7051 72.9774,-56.6188 90.5802,-86.5289 126.2324,-214.4922 23.1759,-83.1833 31.4485,-173.2181 75.4141,-820.7968 27.1603,-400.0502 46.8729,-752.2977 43.8047,-782.7735 -6.865,-68.1898 -55.4763,-162.4318 -116.295,-225.4629 -47.6221,-49.3544 -190.6437,-147.8278 -297.1621,-204.6015 -64.3539,-34.3003 -105.6853,-79.1333 -147.0039,-159.461 -23.5502,-45.784 -23.3919,-47.7173 25.1055,-307.8359 18.2143,-97.69285 30.9051,-179.83313 28.2031,-182.53516 -10.2554,-10.25543 -191.1232,-28.33 -344.1973,-34.39648 -21.4664,-0.85074 -44.4722,-1.27063 -68.0664,-1.31836 z"
     inkscape:connector-curvature="0"
     sodipodi:nodetypes="sccscssscsscsscsssccss" />
  <flowRoot
     xml:space="preserve"
     id="flowRoot844"
     style="fill:black;fill-opacity:1;stroke:none;font-family:sans-serif;font-style:normal;font-weight:normal;font-size:40px;line-height:1.25;letter-spacing:0px;word-spacing:0px"><flowRegion
       id="flowRegion846"><rect
         id="rect848"
         width="1139.4512"
         height="346.09802"
         x="2449.5859"
         y="2666.5305" /></flowRegion><flowPara
       id="flowPara850" /></flowRoot>  <flowRoot
     xml:space="preserve"
     id="flowRoot852"
     style="font-style:normal;font-weight:normal;font-size:40px;line-height:400;font-family:sans-serif;letter-spacing:0px;word-spacing:0px;fill:#000000;fill-opacity:1;stroke:none"><flowRegion
       id="flowRegion854"
       style="line-height:400"><rect
         id="rect856"
         width="1139.6899"
         height="229.83859"
         x="2449.5859"
         y="2666.5305"
         style="line-height:400" /></flowRegion><flowPara
       id="flowPara858">MMMMa'mM</flowPara></flowRoot>  <flowRoot
     xml:space="preserve"
     id="flowRoot860"
     style="fill:black;fill-opacity:1;stroke:none;font-family:Arial;font-style:normal;font-weight:bold;font-size:192px;line-height:1.25;letter-spacing:0px;word-spacing:0px;text-anchor:middle;text-align:center;-inkscape-font-specification:'Arial Bold';font-stretch:normal;font-variant:normal;"><flowRegion
       id="flowRegion862"
       style="font-size:192px;text-anchor:middle;text-align:center;-inkscape-font-specification:'Arial Bold';font-family:Arial;font-weight:bold;font-style:normal;font-stretch:normal;font-variant:normal;"><rect
         id="rect864"
         width="1128.175"
         height="218.032"
         x="2461.1008"
         y="2678.3372"
         style="font-size:192px;text-anchor:middle;text-align:center;-inkscape-font-specification:'Arial Bold';font-family:Arial;font-weight:bold;font-style:normal;font-stretch:normal;font-variant:normal;" /></flowRegion><flowPara
       id="flowPara866" /></flowRoot>  <flowRoot
     xml:space="preserve"
     id="flowRoot872"
     style="fill:black;fill-opacity:1;stroke:none;font-family:sans-serif;font-style:normal;font-weight:normal;font-size:192px;line-height:1.25;letter-spacing:0px;word-spacing:0px;"><flowRegion
       id="flowRegion874"
       style="font-size:192px;"><rect
         id="rect876"
         width="1306.0697"
         height="307.93515"
         x="445.97504"
         y="2003.8755"
         style="font-size:192px;" /></flowRegion><flowPara
       id="flowPara878" /></flowRoot>  <flowRoot
     xml:space="preserve"
     id="flowRoot898"
     style="fill:black;fill-opacity:1;stroke:none;font-family:sans-serif;font-style:normal;font-weight:normal;font-size:40px;line-height:1.25;letter-spacing:0px;word-spacing:0px"><flowRegion
       id="flowRegion900"><rect
         id="rect902"
         width="899.30499"
         height="1341.6266"
         x="2449.5859"
         y="1324.9039" /></flowRegion><flowPara
       id="flowPara904" /></flowRoot>  <flowRoot
     xml:space="preserve"
     id="flowRoot906"
     style="fill:black;fill-opacity:1;stroke:none;font-family:sans-serif;font-style:normal;font-weight:normal;font-size:40px;line-height:1.25;letter-spacing:0px;word-spacing:0px"><flowRegion
       id="flowRegion908"><rect
         id="rect910"
         width="339.7905"
         height="244.22443"
         x="2941.3115"
         y="3108.1946" /></flowRegion><flowPara
       id="flowPara912" /></flowRoot>  <flowRoot
     xml:space="preserve"
     id="flowRoot914"
     style="fill:black;fill-opacity:1;stroke:none;font-family:sans-serif;font-style:normal;font-weight:normal;font-size:40px;line-height:1.25;letter-spacing:0px;word-spacing:0px"><flowRegion
       id="flowRegion916"><rect
         id="rect918"
         width="21.236906"
         height="138.03989"
         x="2824.5085"
         y="2832.1147" /></flowRegion><flowPara
       id="flowPara920" /></flowRoot>  <flowRoot
     xml:space="preserve"
     id="flowRoot45"
     style="font-style:normal;font-variant:normal;font-weight:normal;font-stretch:normal;font-size:133.33332825px;line-height:1.25;font-family:AcadEref;-inkscape-font-specification:'AcadEref, Normal';font-variant-ligatures:normal;font-variant-caps:normal;font-variant-numeric:normal;font-feature-settings:normal;text-align:center;letter-spacing:0px;word-spacing:0px;writing-mode:lr-tb;text-anchor:middle;fill:#000000;fill-opacity:1;stroke:none"><flowRegion
       id="flowRegion47"
       style="font-style:normal;font-variant:normal;font-weight:normal;font-stretch:normal;font-size:133.33332825px;font-family:AcadEref;-inkscape-font-specification:'AcadEref, Normal';font-variant-ligatures:normal;font-variant-caps:normal;font-variant-numeric:normal;font-feature-settings:normal;text-align:center;writing-mode:lr-tb;text-anchor:middle"><rect
         id="rect49"
         width="1325.2291"
         height="465.51956"
         x="2350.123"
         y="2560.3574"
         style="font-style:normal;font-variant:normal;font-weight:normal;font-stretch:normal;font-size:133.33332825px;font-family:AcadEref;-inkscape-font-specification:'AcadEref, Normal';font-variant-ligatures:normal;font-variant-caps:normal;font-variant-numeric:normal;font-feature-settings:normal;text-align:center;writing-mode:lr-tb;text-anchor:middle" /></flowRegion><flowPara
       id="flowPara53" /></flowRoot>  <rect
     style="fill:none;fill-opacity:1;stroke:#000000;stroke-width:7.6753788;stroke-miterlimit:4;stroke-dasharray:none;stroke-opacity:1"
     id="rect94"
     width="1164.9036"
     height="275.16049"
     x="2402.1294"
     y="2398.375" />
  <text
     xml:space="preserve"
     style="font-style:normal;font-variant:normal;font-weight:bold;font-stretch:normal;font-size:133.33332825px;line-height:1.25;font-family:'Comic Sans MS';-inkscape-font-specification:'Comic Sans MS, Bold';font-variant-ligatures:normal;font-variant-caps:normal;font-variant-numeric:normal;font-feature-settings:normal;text-align:start;letter-spacing:0px;word-spacing:0px;writing-mode:lr-tb;text-anchor:start;fill:#000000;fill-opacity:1;stroke:none"
     x="2440.2227"
     y="2608.6306"
     id="text2366"><tspan
       sodipodi:role="line"
       x="0"
       y="0"
       id="tspan2364"><tspan
         x="2440.2227"
         y="2608.6306"
         id="tspan2362" /></tspan></text>
  <g
     aria-label="Marbles Reagent"
     transform="scale(1.0069612,0.99308695)"
     style="font-style:normal;font-variant:normal;font-weight:bold;font-stretch:normal;font-size:40.2784462px;line-height:1.25;font-family:'Comic Sans MS';-inkscape-font-specification:'Comic Sans MS Bold';letter-spacing:0px;word-spacing:0px;fill:#000000;fill-opacity:1;stroke:none;stroke-width:1.00696123"
     id="text2370">
    <path
       d="m 2457.9689,2541.5114 q -2.9501,10.6203 -8.2602,32.0576 -1.2456,7.408 -2.4256,14.7504 -2.6879,9.3091 -9.8992,9.3091 -4.5235,0 -7.1458,-3.0812 -2.2289,-2.6222 -2.2289,-6.2279 0,-10.6203 4.5235,-25.8952 6.7524,-22.8795 7.2768,-25.3707 1.9012,-10.0958 3.8679,-20.1916 2.9501,-13.8982 6.3591,-18.4872 3.4745,-4.6546 8.7191,-4.6546 5.9657,0 8.7847,6.0313 2.6223,5.7035 5.6379,23.3384 2.8845,17.1105 8.588,36.8433 7.4736,-19.4706 13.8982,-42.7434 l 3.6712,-15.0782 q 3.5401,-9.3747 10.9481,-9.3747 7.1457,0 10.6203,10.8825 1.4422,4.3923 3.0812,16.3893 3.8023,27.9275 9.5714,47.8569 5.8346,20.2572 5.8346,22.0273 0,3.8679 -3.0812,6.4902 -2.8846,2.36 -6.4902,2.36 -7.1458,0 -10.6203,-10.2269 l -3.6712,-15.8649 q -3.1468,-11.8003 -6.818,-33.8932 -2.9501,8.7847 -9.768,27.5997 l -3.9335,12.0625 q -2.4256,7.1458 -5.0479,11.7348 -3.4745,6.0968 -9.7025,6.0968 -6.1624,0 -9.4402,-7.2768 l -3.6713,-12.1937 q -5.1134,-16.7827 -9.178,-35.2699 z"
       style="font-size:134.26148987px;stroke-width:1.00696123"
       id="path48" />
    <path
       d="m 2605.0796,2597.6285 q -3.0156,0 -9.5713,-6.5557 -6.0313,2.8845 -10.6203,4.3268 -4.589,1.5078 -7.8013,1.5078 -15.7994,0 -23.7318,-8.4569 -7.8669,-8.4569 -7.8669,-25.3051 0,-15.7994 11.6692,-27.0097 11.6692,-11.2758 27.9275,-11.2758 6.2279,0 14.4226,3.5401 9.8991,4.2612 9.8991,9.8991 0,2.3601 -1.5078,4.1301 -0.6556,2.6223 -1.0489,6.6213 -0.3278,3.9335 -0.3278,9.2436 0,12.5215 1.7701,18.0283 0.1966,0.59 3.0156,6.818 2.5567,5.6379 2.5567,6.4246 0,3.4745 -2.6878,5.769 -2.6223,2.2945 -6.0969,2.2945 z m -16.2582,-44.9723 q 0,-2.0978 0.2623,-4.7857 0.3277,-2.7534 0.9178,-6.0968 -1.3112,-0.6556 -2.3601,-0.9178 -0.9834,-0.3278 -1.7045,-0.3278 -8.9158,0 -15.6027,7.0146 -6.6868,6.9491 -6.6868,16.1271 0,8.7847 3.1467,13.2426 3.1468,4.3924 9.4403,4.3924 4.0646,0 7.6702,-1.3112 3.6712,-1.3767 6.8835,-3.999 -1.9667,-15.6026 -1.9667,-23.3384 z"
       style="font-size:134.26148987px;stroke-width:1.00696123"
       id="path50" />
    <path
       d="m 2678.1761,2546.0349 q -0.59,10.0303 -9.1125,10.0303 -8.2602,0 -8.2602,-8.5225 l -0.3278,-6.6213 q -14.7504,2.3601 -21.1095,15.1438 l 0.066,32.9753 q 0,3.7368 -2.5567,6.1624 -2.5568,2.4912 -6.4902,2.4912 -4.0646,0 -6.2935,-2.6223 -2.0979,-2.3601 -2.0979,-6.0313 v -42.94 q 0,-2.0323 0.1312,-6.0313 0.1311,-4.0646 0.1311,-6.0969 0,-3.6712 2.1634,-6.0968 2.2289,-2.4912 6.2935,-2.4912 7.2768,0 8.6535,7.4736 11.6037,-8.6536 25.7641,-8.6536 13.1115,0 13.1115,17.4383 0,3.3434 -0.066,4.3923 z"
       style="font-size:134.26148987px;stroke-width:1.00696123"
       id="path52" />
    <path
       d="m 2718.8872,2596.0552 q -9.178,0 -17.4382,-3.2123 -2.4256,2.4256 -5.9002,2.4256 -3.5401,0 -6.0968,-2.3601 -2.4912,-2.3601 -2.4912,-5.9001 0,-1.5734 0.1967,-4.7857 0.1966,-3.2779 0.1966,-4.8513 v -74.2765 q 0,-4.7201 2.0979,-8.3913 2.6223,-4.6546 7.4735,-4.6546 7.0147,0 7.0147,7.6047 0,0.8522 -0.2623,2.7534 -0.1966,1.8356 -0.1966,2.6878 v 25.1085 q 4.8512,-2.6879 9.3091,-3.999 4.4579,-1.3767 8.588,-1.3767 15.406,0 24.9118,11.2103 8.8503,10.4892 8.8503,25.4363 0,15.2093 -10.2925,25.764 -10.4892,10.817 -25.9608,10.817 z m 2.4912,-56.4449 q -3.409,0 -7.8669,1.9667 -4.4579,1.9667 -10.0302,5.9002 -0.066,6.2279 0,27.8618 8.9813,3.8679 15.4059,3.8679 8.3258,0 13.7015,-5.5724 5.3757,-5.6379 5.3757,-14.1603 0,-8.5225 -4.3923,-14.0949 -4.589,-5.769 -12.1937,-5.769 z"
       style="font-size:134.26148987px;stroke-width:1.00696123"
       id="path54" />
    <path
       d="m 2787.6569,2583.6648 q 0,12.4559 -9.0469,12.4559 -3.9335,0 -6.4902,-2.4912 -2.5567,-2.4911 -2.5567,-6.4246 v -90.6658 q 0,-3.8023 2.7534,-6.228 2.6223,-2.2289 6.4902,-2.2289 3.8678,0 6.359,2.36 2.4912,2.2946 2.4912,6.0969 z"
       style="font-size:134.26148987px;stroke-width:1.00696123"
       id="path56" />
    <path
       d="m 2837.2183,2596.3174 q -15.6682,0 -25.6329,-7.4735 -11.0137,-8.2603 -11.0137,-23.2729 0,-16.586 8.7192,-28.0586 9.7025,-12.7181 26.1574,-12.7181 11.4069,0 18.946,3.6712 9.8992,4.8513 9.8992,15.0782 0,7.2113 -8.0636,12.7837 -3.6712,2.5567 -14.7504,7.4735 l -22.0928,9.7681 q 3.1468,3.409 7.6047,5.1135 4.4579,1.7045 10.2269,1.7045 8.7847,0 14.8815,-3.6057 5.4413,-3.2123 8.7192,-3.2123 6.8179,0 6.8179,6.6213 0,7.4735 -10.9481,12.1937 -9.178,3.9334 -19.4705,3.9334 z m -1.77,-55.6582 q -6.0969,0 -10.4237,4.0645 -4.3268,4.0646 -6.949,12.1937 7.4079,-3.2123 14.7504,-6.359 8.8502,-3.999 14.0948,-7.408 -4.3923,-2.4912 -11.4725,-2.4912 z"
       style="font-size:134.26148987px;stroke-width:1.00696123"
       id="path58" />
    <path
       d="m 2925.3274,2545.3138 q -6.4902,0 -7.8013,-5.4413 -2.6223,-0.4589 -5.3757,-0.4589 -15.7994,0 -15.7994,4.3268 0,2.5567 9.5059,6.8835 12.9803,5.9657 17.5693,9.3092 9.5059,6.8835 9.5059,15.5371 0,11.2758 -10.4892,17.1104 -8.4569,4.6546 -20.7817,4.6546 -8.7191,0 -15.9305,-2.6879 -9.8336,-3.6712 -9.8336,-10.8169 0,-6.5558 7.8014,-6.5558 3.0156,0 8.7191,1.9012 5.7035,1.9012 8.7847,1.9012 13.3081,0 13.3737,-5.3757 0,-3.3435 -9.2436,-7.408 -13.5048,-5.9657 -17.3071,-8.588 -9.2436,-6.4902 -9.2436,-15.7994 0,-13.177 13.9637,-17.766 8.1947,-2.6879 24.9118,-2.6879 6.5557,0 9.7025,1.7045 4.3268,2.2945 4.3268,8.4569 0,11.8004 -6.3591,11.8004 z"
       style="font-size:134.26148987px;stroke-width:1.00696123"
       id="path60" />
    <path
       d="m 3069.8158,2594.0884 q -3.5401,0 -6.4902,-2.7534 -19.8638,-18.6183 -43.6612,-25.8296 0.7212,19.0772 0.7212,21.1751 0,3.7367 -2.6223,6.359 -2.6223,2.5568 -6.5558,2.5568 -3.9334,0 -6.5557,-2.5568 -2.6223,-2.6223 -2.6223,-6.359 0,-4.9168 0.1311,-14.6849 0.1311,-9.8336 0.1311,-14.7504 l 0.1312,-52.9048 q 0,-4.2612 2.5567,-7.7358 3.3434,-4.4579 9.2436,-3.999 15.9304,1.1801 16.3238,1.2456 9.178,1.1145 15.6026,4.3924 27.993,14.0948 27.993,34.9421 0,8.588 -5.9002,15.2093 -5.8346,6.5557 -17.5693,11.0792 17.3727,9.7024 26.1574,19.7983 2.2945,2.6223 2.2945,5.8346 0,3.6712 -2.7534,6.3591 -2.7534,2.6222 -6.5558,2.6222 z m -42.0222,-82.4711 q -0.5245,-0.066 -7.6703,-0.5245 v 34.811 q 1.639,0.066 2.8846,0.066 16.0615,0 23.7973,-3.999 3.3434,-1.7045 6.0968,-4.5234 2.819,-2.819 2.819,-4.2612 0,-7.3425 -9.3092,-14.1604 -8.8502,-6.4247 -18.6182,-7.408 z"
       style="font-size:134.26148987px;stroke-width:1.00696123"
       id="path62" />
    <path
       d="m 3121.7373,2596.3174 q -15.6682,0 -25.6329,-7.4735 -11.0137,-8.2603 -11.0137,-23.2729 0,-16.586 8.7191,-28.0586 9.7025,-12.7181 26.1574,-12.7181 11.407,0 18.9461,3.6712 9.8992,4.8513 9.8992,15.0782 0,7.2113 -8.0636,12.7837 -3.6712,2.5567 -14.7504,7.4735 l -22.0928,9.7681 q 3.1467,3.409 7.6046,5.1135 4.4579,1.7045 10.227,1.7045 8.7847,0 14.8815,-3.6057 5.4413,-3.2123 8.7191,-3.2123 6.818,0 6.818,6.6213 0,7.4735 -10.9481,12.1937 -9.178,3.9334 -19.4705,3.9334 z m -1.7701,-55.6582 q -6.0968,0 -10.4236,4.0645 -4.3268,4.0646 -6.9491,12.1937 7.408,-3.2123 14.7504,-6.359 8.8503,-3.999 14.0949,-7.408 -4.3924,-2.4912 -11.4726,-2.4912 z"
       style="font-size:134.26148987px;stroke-width:1.00696123"
       id="path64" />
    <path
       d="m 3220.27,2597.6285 q -3.0156,0 -9.5714,-6.5557 -6.0313,2.8845 -10.6203,4.3268 -4.589,1.5078 -7.8013,1.5078 -15.7993,0 -23.7318,-8.4569 -7.8668,-8.4569 -7.8668,-25.3051 0,-15.7994 11.6692,-27.0097 11.6692,-11.2758 27.9274,-11.2758 6.228,0 14.4226,3.5401 9.8992,4.2612 9.8992,9.8991 0,2.3601 -1.5078,4.1301 -0.6556,2.6223 -1.0489,6.6213 -0.3278,3.9335 -0.3278,9.2436 0,12.5215 1.77,18.0283 0.1967,0.59 3.0157,6.818 2.5567,5.6379 2.5567,6.4246 0,3.4745 -2.6879,5.769 -2.6223,2.2945 -6.0968,2.2945 z m -16.2582,-44.9723 q 0,-2.0978 0.2622,-4.7857 0.3278,-2.7534 0.9178,-6.0968 -1.3111,-0.6556 -2.3601,-0.9178 -0.9833,-0.3278 -1.7045,-0.3278 -8.9158,0 -15.6026,7.0146 -6.6869,6.9491 -6.6869,16.1271 0,8.7847 3.1468,13.2426 3.1468,4.3924 9.4403,4.3924 4.0645,0 7.6702,-1.3112 3.6712,-1.3767 6.8835,-3.999 -1.9667,-15.6026 -1.9667,-23.3384 z"
       style="font-size:134.26148987px;stroke-width:1.00696123"
       id="path66" />
    <path
       d="m 3299.2011,2554.2296 q -2.7534,15.4059 -3.2779,32.5164 -0.6556,21.1751 -7.0802,30.7464 -8.588,12.7837 -30.4186,12.7837 -25.5018,0 -25.5018,-10.0958 0,-3.6057 2.2945,-5.8346 2.2945,-2.229 6.0313,-2.229 2.9501,0 8.4569,1.1145 5.5068,1.1145 9.768,1.1145 9.7681,0 14.4226,-5.9657 4.4579,-5.8347 5.2446,-18.5528 -3.3434,3.409 -7.5391,5.1135 -4.1956,1.7045 -9.178,1.7045 -13.0459,0 -21.2406,-8.4569 -8.1291,-8.5225 -8.1291,-21.7651 0,-17.8316 10.8825,-28.8452 11.2759,-11.407 30.4842,-11.407 6.1624,0 10.6203,1.5078 4.4579,1.5079 7.2113,4.589 8.3258,0.9834 8.3258,9.8337 0,4.3923 -1.3767,12.1281 z m -25.4363,-13.1115 q -11.0792,0 -17.2416,7.2769 -5.5068,6.6213 -5.5068,17.176 0,7.8013 2.9501,11.7348 2.9501,3.9334 8.8502,3.9334 5.3758,0 10.817,-6.2279 5.1135,-5.9002 5.8346,-11.6693 1.2456,-6.2935 2.8845,-19.6016 -2.2289,-1.3112 -4.3923,-1.9667 -2.1634,-0.6556 -4.1957,-0.6556 z"
       style="font-size:134.26148987px;stroke-width:1.00696123"
       id="path68" />
    <path
       d="m 3342.7967,2596.3174 q -15.6682,0 -25.6329,-7.4735 -11.0136,-8.2603 -11.0136,-23.2729 0,-16.586 8.7191,-28.0586 9.7025,-12.7181 26.1574,-12.7181 11.407,0 18.9461,3.6712 9.8991,4.8513 9.8991,15.0782 0,7.2113 -8.0635,12.7837 -3.6712,2.5567 -14.7504,7.4735 l -22.0929,9.7681 q 3.1468,3.409 7.6047,5.1135 4.4579,1.7045 10.2269,1.7045 8.7847,0 14.8816,-3.6057 5.4412,-3.2123 8.7191,-3.2123 6.818,0 6.818,6.6213 0,7.4735 -10.9481,12.1937 -9.1781,3.9334 -19.4706,3.9334 z m -1.77,-55.6582 q -6.0968,0 -10.4236,4.0645 -4.3268,4.0646 -6.9491,12.1937 7.408,-3.2123 14.7504,-6.359 8.8502,-3.999 14.0948,-7.408 -4.3923,-2.4912 -11.4725,-2.4912 z"
       style="font-size:134.26148987px;stroke-width:1.00696123"
       id="path70" />
    <path
       d="m 3436.4126,2597.9563 q -8.0635,0 -8.9813,-7.9324 -0.9178,-6.7524 -1.8356,-13.5704 -0.9834,-7.2113 -0.9834,-13.5704 0,-1.7045 0.1967,-5.8346 0.2622,-4.1301 0.2622,-5.8346 0,-0.4589 0.1311,-2.2945 0.1312,-1.9011 0.1312,-3.0812 0,-5.4412 -2.819,-5.4412 -6.0313,0 -11.8659,7.0802 -5.769,7.0146 -9.0469,17.8316 -0.1311,2.1634 -0.59,5.769 -0.3934,2.9501 -0.3934,5.7691 0,1.8356 0.3934,5.5723 0.4589,3.6712 0.4589,5.5069 0,3.7367 -2.6223,6.1623 -2.5568,2.4912 -6.4902,2.4912 -3.9334,0 -6.4902,-2.4912 -2.5567,-2.4256 -2.5567,-6.1623 0,-1.8357 -0.3934,-5.5069 -0.3933,-3.7367 -0.3933,-5.5723 0,-6.2935 0.9178,-17.5039 0.9178,-11.2103 0.9178,-17.5038 0,-1.9667 -0.2622,-5.8346 -0.1967,-3.9334 -0.1967,-5.8346 0,-3.6712 2.6223,-6.0313 2.6878,-2.4256 6.5557,-2.4256 8.588,0 9.1781,10.2925 l 0.065,0.7211 q 9.5714,-9.6369 20.1917,-9.6369 12.3903,0 17.1105,10.3581 3.1467,6.9491 3.1467,20.7817 v 4.6545 q -0.065,3.0157 -0.065,4.2613 0,5.1134 1.3767,13.177 1.4422,8.0636 1.4422,13.1115 0,3.6712 -2.6223,6.0968 -2.6223,2.4256 -6.4902,2.4256 z"
       style="font-size:134.26148987px;stroke-width:1.00696123"
       id="path72" />
    <path
       d="m 3501.3145,2540.5281 q -1.3767,0 -3.2779,-0.066 -1.8356,-0.1311 -3.2123,-0.1311 -2.6879,0 -6.228,0.5245 1.1801,26.4851 1.1801,34.6143 0,0.8522 0.065,3.2123 0.066,2.2945 0.066,3.7367 0,15.0782 -9.5058,15.0782 -3.6057,0 -6.228,-2.2289 -2.8845,-2.3601 -2.8845,-5.9002 0,-2.36 0.1967,-7.0802 0.1966,-4.7201 0.1966,-7.0802 0,-7.9324 -1.18,-33.9587 -4.0646,-0.1967 -12.3248,-1.0489 -8.1946,-0.9178 -8.1946,-8.5225 0,-3.6712 2.4911,-6.2279 2.4912,-2.5568 6.4247,-2.5568 2.4256,0 11.1447,0.7867 -0.066,-2.0978 -0.3278,-6.949 -0.2622,-4.1957 -0.2622,-6.4902 0,-3.6712 2.6878,-6.0969 2.6879,-2.4256 6.4902,-2.4256 9.7025,0 9.7025,16.3238 l -0.1311,5.3757 q 4.0646,-0.59 6.6213,-0.59 7.5391,0 10.2925,0.9833 5.2446,1.8357 5.2446,7.998 0,3.7368 -2.5568,6.228 -2.5567,2.4912 -6.4901,2.4912 z"
       style="font-size:134.26148987px;stroke-width:1.00696123"
       id="path74" />
  </g>
</svg>
