<?xml version="1.0" encoding="UTF-8" standalone="no"?>
<!-- Created with Inkscape (http://www.inkscape.org/) -->

<svg
   xmlns:dc="http://purl.org/dc/elements/1.1/"
   xmlns:cc="http://creativecommons.org/ns#"
   xmlns:rdf="http://www.w3.org/1999/02/22-rdf-syntax-ns#"
   xmlns:svg="http://www.w3.org/2000/svg"
   xmlns="http://www.w3.org/2000/svg"
   xmlns:sodipodi="http://sodipodi.sourceforge.net/DTD/sodipodi-0.dtd"
   xmlns:inkscape="http://www.inkscape.org/namespaces/inkscape"
   version="1.1"
   id="svg4530"
   width="5376"
   height="4032"
   viewBox="0 0 5376 4032"
   sodipodi:docname="hand_sample.svg"
   inkscape:version="0.92.4 (5da689c313, 2019-01-14)">
  <metadata
     id="metadata4536">
    <rdf:RDF>
      <cc:Work
         rdf:about="">
        <dc:format>image/svg+xml</dc:format>
        <dc:type
           rdf:resource="http://purl.org/dc/dcmitype/StillImage" />
        <dc:title />
      </cc:Work>
    </rdf:RDF>
  </metadata>
  <defs
     id="defs4534" />
  <sodipodi:namedview
     pagecolor="#ffffff"
     bordercolor="#666666"
     borderopacity="1"
     objecttolerance="10"
     gridtolerance="10"
     guidetolerance="10"
     inkscape:pageopacity="0"
     inkscape:pageshadow="2"
     inkscape:window-width="1360"
     inkscape:window-height="705"
     id="namedview4532"
     showgrid="false"
     inkscape:zoom="0.1494184"
     inkscape:cx="3011.7412"
     inkscape:cy="1741.1529"
     inkscape:window-x="-8"
     inkscape:window-y="-8"
     inkscape:window-maximized="1"
     inkscape:current-layer="svg4530" />
  <path
     style="fill:none;stroke:#000000;stroke-width:1px;stroke-linecap:butt;stroke-linejoin:miter;stroke-opacity:1"
     d="M 3551.662,3151.7746 Z"
     id="path5089"
     inkscape:connector-curvature="0" />
  <path
     style="fill:none;stroke:#00000a;stroke-width:4;stroke-linecap:butt;stroke-linejoin:miter;stroke-miterlimit:4;stroke-dasharray:none;stroke-opacity:1"
     d="m 1930.8199,2979.5861 c 0.5073,-16.782 16.011,-18.5675 26.7704,-25.0973 9.8514,-66.4468 -6.2663,-66.5284 -15.0584,-85.3309 -21.17,-26.2127 -46.4647,-52.4255 -48.5214,-78.6382 17.1193,-23.9819 -0.6813,-47.9638 -8.3658,-71.9457 24.0712,-21.1486 54.4404,-39.1482 61.9067,-68.5993 22.7244,20.2199 52.0606,33.828 83.6577,45.1752 l 18.4047,1.6731 c -2.5891,14.0049 9.1774,22.9406 8.3657,38.4826 -8.8565,14.0655 -11.7773,33.6291 -18.4046,61.0701 l -8.3165,26.5583 c -14.9338,20.9195 -28.318,43.8928 -35.1855,75.5041 -10.7616,18.6325 -10.7102,56.3812 -15.0584,87.8406 -32.2207,-20.2703 -40.7418,-3.9715 -50.1946,-6.6926 z m -33.5285,-173.8277 c -7.7103,6.4971 -17.49,11.0771 -28.3943,10.9436 m -28.986,53.831 c -5.2577,12.4564 -14.6247,16.6942 -24.5493,19.8169 m 122.4507,74.831 c -3.9347,-10.2535 -9.1045,-20.5071 -17.7464,-30.7606 -14.6303,-14.1524 -29.096,-28.3753 -49.0986,-40.2253 -7.4934,-9.9575 -16.0696,-19.1569 -31.3521,-23.662 3.2561,-12.0807 6.2503,-24.3316 -5.9155,-46.4366 l -9.7606,-21 c -5.8987,16.5151 -16.4064,19.2031 -25.1408,27.2113 -3.4348,6.5873 -8.0872,12.9039 -4.7324,21 0.283,29.0712 6.5248,55.9755 -0.8874,87.845 -1.3609,9.2077 -1.522,20.815 -5.0281,25.7324 -1.4492,6.1572 -6.4805,6.9414 -10.9437,8.5775 m 19.7606,-65.8221 c 3.9551,4.4482 6.6208,5.2127 14.2218,20.0778 7.1922,13.1808 13.6063,26.984 23.4241,38.0643 5.7532,4.8064 9.3123,11.4966 12.1304,18.823 m -128.9876,53.9274 c 13.3926,17.8228 21.5058,39.1651 25.4366,63.2958 m 44.3662,5.3239 c 20.2122,-50.4628 33.4241,-102.0547 5.324,-160.3098 m 15.3803,53.2394 c 6.3467,-4.4895 9.9384,-13.7997 17.4129,-18.1433 9.9876,-5.804 12.1771,-2.3064 33.1826,8.6923 7.1855,3.7624 12.8821,-14.0986 21.9316,-17.8921 15.0278,-6.2996 21.7511,-10.5558 51.1067,6.6389 m 78.676,114.169 c -12.1586,-8.4888 -8.4574,-26.0405 -10.6479,-40.2254 m 0.5916,0.5916 c -3.6695,-21.5227 0.089,-38.9935 -19.5212,-69.2113 m 117.7184,21.8873 c -13.0262,0.2909 -26.2328,0.3935 -40.8169,5.324 -13.6677,8.4451 -16.5361,14.1904 -17.7465,19.5211 l -7.0986,52.0563 c 0.8714,7.4676 4.9353,10.1464 8.8732,13.0141 13.2113,4.9957 26.4225,8.0713 39.6338,0.5916 m -390.4225,-148.4789 c -11.1121,-32.4654 -19.0435,-68.1115 -25.4366,-105.2958 -8.6066,-28.1938 -2.7804,-61.5422 10.6479,-97.6056 18.5857,-60.0903 47.4582,-109.8939 73.3521,-162.676 4.7564,-47.153 11.1105,-93.3028 82.2253,-98.7888 m -7.6901,318.2535 c 13.1329,-23.3981 32.2099,-48.6052 28.3943,-66.845 l -8.2816,-10.6479 c 15.3332,7.0714 30.6918,14.2989 41.4084,-7.0986 m -97.6056,387.4647 c -13.5589,9.2414 -25.864,7.199 -37.8591,2.3662 -26.2002,-20.9332 -37.6585,-43.9723 -33.0079,-69.3127 l -22.8008,-45.2448 c -2.5738,-14.332 -7.4444,-24.8358 -5.7125,-46.3439 l -70.3944,-169.7746 c -10.2037,-16.3335 -9.4511,-33.7626 -3.9378,-51.6678 15.5527,-65.0539 56.3678,-148.0648 83.797,-221.0364 6.169,-64.2396 23.3306,-100.9976 47.324,-120.6761 l 139.6056,-56.7887 130.1409,-85.1831 132.507,-78.0845 104.1127,-59.155 42.5915,-56.7887 47.324,-21.2958 16.5634,-30.7605 18.9295,-3.3463 16.5634,-13.2171 49.6901,-16.5634 c 28.6393,-1.2329 37.8305,-8.9485 54.4226,-14.1972 l 383.3239,-298.1408 c 244.0576,-164.8633 294.588,-218.7497 411.7183,-260.2817 50.615,-29.9522 110.9405,-54.5612 151.4914,-77.6067 187.6978,-106.6705 259.2941,-145.671 307.5509,-156.6468 l -2.3662,648.338 -309.9718,170.3662 c -104.0588,46.8161 -205.0462,94.6559 -321.8029,137.2394 -91.3202,29.3063 -172.258,56.5361 -283.9436,89.9155 -51.0914,13.442 -65.2671,21.2047 -168,42.5916 l -32.3641,6.8115 m 0,0 c -26.7641,8.3445 -122.6927,62.575 -126.1711,57.0758 l -57.1948,59.442 c -52.7752,62.7041 -63.0726,135.9592 -80.0447,200.8397 -22.176,33.6221 -50.6114,65.1577 -99.3802,89.9155 l -40.2254,87.5493 -47.3239,68.6197 c -13.1962,45.7465 -19.9165,91.4929 -49.6902,137.2394 l -33.1268,40.2254 c -5.1792,44.6598 -3.2429,85.7242 -24.2535,118.9014 -20.6773,1.8051 -45.541,12.7101 -65.6619,-17.1549 14.4311,16.4979 18.8128,34.4315 2.1037,55.378 m -225.1179,-41.7724 c -10.9815,14.1305 -5.7001,26.5838 9.8267,33.8928 11.1467,15.665 24.7882,23.6191 48.1032,1.6731 6.5559,16.2549 8.4744,35.553 49.3581,29.2802 30.6424,24.0348 50.0025,13.1971 68.5993,0 13.8322,-3.5411 19.867,-10.9809 22.5876,-20.0778 10.9098,6.6093 20.1875,7.0985 26.643,-2.9959"
     id="path5183"
     inkscape:connector-curvature="0"
     sodipodi:nodetypes="cccccccccccccccccccccccccccccsccccccccsssccccccccccccccccccccccccccccccccccccccccccccccccccccccccccccccccccccc" />
  <path
     style="fill:none;stroke:#000000;stroke-width:1px;stroke-linecap:butt;stroke-linejoin:miter;stroke-opacity:1"
     d="M 5934.4225,2441.9155 Z"
     id="path5185"
     inkscape:connector-curvature="0" />
</svg>
