<?xml version="1.0" encoding="UTF-8" standalone="no"?>
<!-- Created with Inkscape (http://www.inkscape.org/) -->

<svg
   xmlns:dc="http://purl.org/dc/elements/1.1/"
   xmlns:cc="http://creativecommons.org/ns#"
   xmlns:rdf="http://www.w3.org/1999/02/22-rdf-syntax-ns#"
   xmlns:svg="http://www.w3.org/2000/svg"
   xmlns="http://www.w3.org/2000/svg"
   xmlns:sodipodi="http://sodipodi.sourceforge.net/DTD/sodipodi-0.dtd"
   xmlns:inkscape="http://www.inkscape.org/namespaces/inkscape"
   version="1.1"
   id="svg826"
   width="5376"
   height="4032"
   viewBox="0 0 5376 4032"
   sodipodi:docname="velvet.svg"
   inkscape:version="0.92.4 (5da689c313, 2019-01-14)">
  <metadata
     id="metadata832">
    <rdf:RDF>
      <cc:Work
         rdf:about="">
        <dc:format>image/svg+xml</dc:format>
        <dc:type
           rdf:resource="http://purl.org/dc/dcmitype/StillImage" />
        <dc:title />
      </cc:Work>
    </rdf:RDF>
  </metadata>
  <defs
     id="defs830" />
  <sodipodi:namedview
     pagecolor="#ffffff"
     bordercolor="#666666"
     borderopacity="1"
     objecttolerance="10"
     gridtolerance="10"
     guidetolerance="10"
     inkscape:pageopacity="0"
     inkscape:pageshadow="2"
     inkscape:window-width="1366"
     inkscape:window-height="705"
     id="namedview828"
     showgrid="false"
     inkscape:zoom="0.1494184"
     inkscape:cx="925.82437"
     inkscape:cy="1743.9497"
     inkscape:window-x="-8"
     inkscape:window-y="-8"
     inkscape:window-maximized="1"
     inkscape:current-layer="svg826" />
  <path
     style="fill:none;stroke:#000000;stroke-width:7.55905512;stroke-linecap:butt;stroke-linejoin:miter;stroke-opacity:1;stroke-miterlimit:4;stroke-dasharray:none"
     d="M 3371.4055,510.01067 1535.9554,499.97174 1649.7299,386.19727 c 13.943,-9.89991 27.8859,-25.24026 41.8289,-18.4047 L 3235.585,365.099 c 22.4292,4.32961 51.6056,4.16112 61.8942,16.58452 l 71.9856,124.68267 v 832.90141 l -1866.9296,9.4648 16.5634,-821.07043 c -0.4834,-12.91989 5.9112,-22.08812 17.6934,-28.31766 m -32.6265,848.91659 15.0584,204.1248 610.7012,8.3657 c 187.5544,-21.5981 371.2243,-28.9531 545.4483,-1.6731 l 694.3589,-16.7316 v -209.1442 0 M 1512,1464.6761 802.14085,2929.3521 c -22.65931,26.4214 -19.82311,76.2138 -4.7324,137.2394 l 158.53521,567.8874 c 3.27058,18.5701 2.72809,38.3534 73.35214,35.4929 l 2806.3098,-42.5915 c 20.2421,1.5324 78.7939,7.2387 101.7632,1.2471 27.1215,-7.0747 17.2259,-27.1939 17.7298,-42.6556 l -9.4648,-596.2817 c -8.0276,-17.0071 -13.2117,7.5577 -30.3273,-21.3931 -4.527,-7.6574 -11.5303,-18.9922 -15.8135,-29.4801 L 3369.7323,1539.837"
     id="path1379"
     inkscape:connector-curvature="0"
     sodipodi:nodetypes="ccccccccccccccccccccccccsccscc" />
  <path
     style="fill:none;stroke:#000000;stroke-width:7.55905512;stroke-linecap:butt;stroke-linejoin:miter;stroke-opacity:1;stroke-miterlimit:4;stroke-dasharray:none"
     d="m 789.12676,2953.0141 3117.46484,-2.3662 v 0 l -2.3662,-1.1831 m 33.1267,74.5352 -3129.29576,8.2817 c -15.71939,-2.4215 -20.37928,-15.9024 -23.66197,-30.7606"
     id="path1383"
     inkscape:connector-curvature="0"
     sodipodi:nodetypes="ccccccc" />
  <ellipse
     style="fill:none;fill-opacity:1;stroke:#001100;stroke-width:7.55905512;stroke-miterlimit:4;stroke-dasharray:none;stroke-opacity:1"
     id="path1385"
     cx="2426.0737"
     cy="2099.5071"
     rx="689.37164"
     ry="353.06766" />
  <ellipse
     style="fill:none;fill-opacity:1;stroke:#000000;stroke-width:7.55905512;stroke-miterlimit:4;stroke-dasharray:none;stroke-opacity:1"
     id="path1395"
     cx="2429.4199"
     cy="2040.9467"
     rx="769.25415"
     ry="414.5455" />
  <ellipse
     style="fill:none;fill-opacity:1;stroke:#000000;stroke-width:7.55905512;stroke-miterlimit:4;stroke-dasharray:none;stroke-opacity:1"
     id="path1402"
     cx="2416.0344"
     cy="2179.8184"
     rx="1110.95"
     ry="640.79382" />
  <path
     style="fill:none;stroke:#000500;stroke-width:7.55905512;stroke-linecap:butt;stroke-linejoin:miter;stroke-opacity:1;stroke-miterlimit:4;stroke-dasharray:none"
     d="m 3528.6819,2171.4527 1.6732,184.0469 c 2.9739,50.5599 -49.1576,163.1241 -128.8329,229.2221 -108.374,97.769 -230.3726,172.9129 -376.4596,214.1637 -176.8471,57.7127 -348.0325,94.7654 -543.7751,93.6967 -202.7949,-10.0936 -433.7553,-17.6213 -610.7012,-93.6967 -151.383,-34.3502 -309.9936,-136.2937 -413.2691,-239.261 -89.7379,-91.4489 -102.6617,-159.2628 -138.8718,-234.2416 -7.2644,-43.5584 -8.5527,-63.212 -11.7121,-90.3503"
     id="path1406"
     inkscape:connector-curvature="0"
     sodipodi:nodetypes="ccccccccc" />
  <path
     style="fill:none;stroke:#000000;stroke-width:7.55905512;stroke-linecap:butt;stroke-linejoin:miter;stroke-opacity:1;stroke-miterlimit:4;stroke-dasharray:none"
     d="m 3123.7787,1258.7471 c 28.556,2.4157 39.5833,-10.9444 46.0117,-28.4436 l 7.5292,-509.47542 c 6.1984,-35.50174 -20.4206,-26.25236 -36.8094,-30.95335 l -1280.7994,1.67315 c -24.5043,3.22452 -20.5422,20.68227 -24.2608,34.29966 l 30.9534,527.04356 c 1.6615,10.3411 8.4227,10.4828 16.7315,7.5292 z"
     id="path1408"
     inkscape:connector-curvature="0"
     sodipodi:nodetypes="ccccccccc" />
  <rect
     style="fill:none;fill-opacity:1;stroke:#000000;stroke-width:7.55905512;stroke-miterlimit:4;stroke-dasharray:none;stroke-opacity:1"
     id="rect1410"
     width="454.30984"
     height="168"
     x="2246.0198"
     y="807.68512" />
  <rect
     style="fill:none;fill-opacity:1;stroke:#000100;stroke-width:7.55905512;stroke-miterlimit:4;stroke-dasharray:none;stroke-opacity:1"
     id="rect1412"
     width="81.633804"
     height="57.971832"
     x="2304.4465"
     y="1082.1641" />
  <rect
     style="fill:none;fill-opacity:1;stroke:#003500;stroke-width:7.55905512;stroke-miterlimit:4;stroke-dasharray:none;stroke-opacity:1"
     id="rect1414"
     width="88.592789"
     height="61.381523"
     x="2567.0803"
     y="1082.0309" />
  <text
     xml:space="preserve"
     style="font-style:normal;font-weight:normal;font-size:86.47229767px;line-height:1.25;font-family:sans-serif;letter-spacing:0px;word-spacing:0px;fill:#000000;fill-opacity:1;stroke:none;stroke-width:7.55905514;stroke-miterlimit:4;stroke-dasharray:none"
     x="2354.2639"
     y="905.48999"
     id="text1418"
     transform="scale(0.9804207,1.0199703)"><tspan
       sodipodi:role="line"
       id="tspan1416"
       x="2354.2639"
       y="905.48999"
       style="stroke-width:7.55905514;stroke-miterlimit:4;stroke-dasharray:none">ON/OFF</tspan></text>
  <text
     xml:space="preserve"
     style="font-style:normal;font-weight:normal;font-size:40px;line-height:1.25;font-family:sans-serif;letter-spacing:0px;word-spacing:0px;fill:#000000;fill-opacity:1;stroke:none;stroke-width:7.55905512;stroke-miterlimit:4;stroke-dasharray:none"
     x="2315.5847"
     y="1125.9387"
     id="text1422"><tspan
       sodipodi:role="line"
       id="tspan1420"
       x="2315.5847"
       y="1125.9387">ON</tspan></text>
  <flowRoot
     xml:space="preserve"
     id="flowRoot1424"
     style="fill:black;fill-opacity:1;stroke:none;font-family:sans-serif;font-style:normal;font-weight:normal;font-size:40px;line-height:1.25;letter-spacing:0px;word-spacing:0px"><flowRegion
       id="flowRegion1426"><rect
         id="rect1428"
         width="53.239361"
         height="46.140862"
         x="2874.9297"
         y="1152.338" /></flowRegion><flowPara
       id="flowPara1430" /></flowRoot>  <text
     id="text1466"
     y="1126.1541"
     x="2569.998"
     style="font-style:normal;font-weight:normal;font-size:40px;line-height:1.25;font-family:sans-serif;letter-spacing:0px;word-spacing:0px;fill:#000000;fill-opacity:1;stroke:none;stroke-width:7.55905512;stroke-miterlimit:4;stroke-dasharray:none"
     xml:space="preserve"><tspan
       y="1126.1541"
       x="2569.998"
       id="tspan1464"
       sodipodi:role="line">OFF</tspan></text>
</svg>
