<?xml version="1.0" encoding="UTF-8" standalone="no"?>
<!-- Created with Inkscape (http://www.inkscape.org/) -->

<svg
   xmlns:osb="http://www.openswatchbook.org/uri/2009/osb"
   xmlns:dc="http://purl.org/dc/elements/1.1/"
   xmlns:cc="http://creativecommons.org/ns#"
   xmlns:rdf="http://www.w3.org/1999/02/22-rdf-syntax-ns#"
   xmlns:svg="http://www.w3.org/2000/svg"
   xmlns="http://www.w3.org/2000/svg"
   xmlns:sodipodi="http://sodipodi.sourceforge.net/DTD/sodipodi-0.dtd"
   xmlns:inkscape="http://www.inkscape.org/namespaces/inkscape"
   version="1.1"
   id="svg826"
   width="5376"
   height="4032"
   viewBox="0 0 5376 4032"
   sodipodi:docname="velvet_water_alumina.svg"
   inkscape:version="0.92.4 (5da689c313, 2019-01-14)">
  <metadata
     id="metadata832">
    <rdf:RDF>
      <cc:Work
         rdf:about="">
        <dc:format>image/svg+xml</dc:format>
        <dc:type
           rdf:resource="http://purl.org/dc/dcmitype/StillImage" />
        <dc:title />
      </cc:Work>
    </rdf:RDF>
  </metadata>
  <defs
     id="defs830">
    <linearGradient
       id="linearGradient914"
       osb:paint="solid">
      <stop
         style="stop-color:#000000;stop-opacity:1;"
         offset="0"
         id="stop912" />
    </linearGradient>
    <linearGradient
       id="linearGradient908"
       osb:paint="solid">
      <stop
         style="stop-color:#000000;stop-opacity:1;"
         offset="0"
         id="stop906" />
    </linearGradient>
  </defs>
  <sodipodi:namedview
     pagecolor="#ffffff"
     bordercolor="#666666"
     borderopacity="1"
     objecttolerance="10"
     gridtolerance="10"
     guidetolerance="10"
     inkscape:pageopacity="0"
     inkscape:pageshadow="2"
     inkscape:window-width="1366"
     inkscape:window-height="705"
     id="namedview828"
     showgrid="false"
     inkscape:zoom="0.21130952"
     inkscape:cx="2627.4243"
     inkscape:cy="2349.9515"
     inkscape:window-x="-8"
     inkscape:window-y="-8"
     inkscape:window-maximized="1"
     inkscape:current-layer="svg826" />
  <flowRoot
     xml:space="preserve"
     id="flowRoot1424"
     style="fill:black;fill-opacity:1;stroke:none;font-family:sans-serif;font-style:normal;font-weight:normal;font-size:40px;line-height:1.25;letter-spacing:0px;word-spacing:0px"><flowRegion
       id="flowRegion1426"><rect
         id="rect1428"
         width="53.239361"
         height="46.140862"
         x="2874.9297"
         y="1152.338" /></flowRegion><flowPara
       id="flowPara1430" /></flowRoot>  <path
     style="fill:none;stroke:#000000;stroke-width:7.55905512;stroke-linecap:butt;stroke-linejoin:miter;stroke-miterlimit:4;stroke-dasharray:none;stroke-opacity:1"
     d="m 2826.7939,1479.6036 232.5684,-85.3309 c 36.2975,-7.4792 73.7483,-13.3657 133.0157,10.8755 58.3117,31.9994 97.549,72.5824 111.2648,124.65 5.6313,29.2053 8.5843,57.5177 7.5292,84.4942 l -17.5425,211.2726 c 0.091,12.0763 -0.6825,17.2397 -1.6988,20.4592 l -26.7705,130.5061 c -7.2503,11.6318 -14.5007,5.7808 -21.751,0 l -1.6731,-135.5255 c -0.7426,-4.9285 -0.3395,-12.1484 0,-19.2413 l 15.8949,-233.405 c -5.9693,-62.5457 -20.4088,-68.6234 -32.6265,-89.5137 -33.9137,-37.1486 -73.7787,-48.7919 -115.4476,-52.7043 -99.7476,25.4714 -189.1015,69.6515 -283.5996,104.5721 -16.2972,-17.9918 -22.9377,-38.3658 -22.5876,-61.9067 z m -658.8045,379.8059 -27.1887,-64.4165 c -2.6842,-5.9949 -5.1546,-11.1777 -8.7847,-12.1277 -5.7233,-1.4979 -13.0861,3.7968 -19.2406,4.5986 l -56.0507,21.751 c -5.2548,0.9376 -9.0652,2.1317 -10.1771,4.105 -1.3843,2.4569 0.7243,5.8917 1.3931,8.8619 l 26.7704,70.2725 c 51.6487,20.5042 74.6621,-2.8993 93.2783,-33.0448 z m 683.0652,-200.7785 c 54.4658,9.7781 -18.0424,-235.8731 -105.4087,-277.7435 l -218.3466,91.1869 c -21.3988,-33.2943 -48.5563,-57.9504 -77.8017,-79.4749 -31.2891,-17.1864 -59.6459,-10.9145 -87.8406,-3.3463 l -307.0237,127.9963 c 12.2857,56.1597 35.99,103.0419 66.0896,144.7278 20.0695,30.0147 33.7457,63.9637 39.3191,102.899 8.6811,30.7475 25.3667,81.4724 20.0778,89.0954 -3.3687,17.1274 -11.1809,29.8114 -20.0778,41.4106 -15.5306,14.135 -34.8052,15.7903 -53.541,19.2413 -31.1927,-1.7423 -52.3847,-20.9858 -70.2724,-46.0118 -57.9182,-73.3136 -63.0239,-117.706 -76.1285,-166.4788 -11.7548,-55.6338 -44.048,-89.5882 -75.292,-124.65 -36.9135,-35.956 -83.3535,-57.6223 -126.3231,-84.4942 -76.8614,-26.5132 -133.5709,-80.154 -181.5372,-145.5644 -36.5326,-22.9836 -83.5739,-33.9573 -106.2453,-72.7823 -7.2013,-1.4434 -12.5822,-4.707 -14.2218,-11.712 -9.6557,-0.4877 -17.66,-4.2781 -25.0974,-9.2024 v 0 l -1.0067,-389.85774 c 59.6025,14.20837 115.1482,42.61511 170.3662,72.16901 53.6348,28.75999 106.7935,57.79206 168,82.22533 74.0221,32.357 147.0812,63.2696 218.8733,92.2817 l 115.9437,45.5493 c 23.9218,5.091 44.3934,19.3827 65.0704,33.1268 21.3734,7.0854 42.7467,14.376 64.1201,19.3058 21.8591,2.4496 43.7782,4.4947 61.2884,36.2998 15.7936,26.0661 31.4478,51.8534 46.1408,75.7184 16.9513,21.0557 33.939,42.0751 51.9824,62.0387 m -337.7007,135.5387 c 4.3008,-23.0232 3.8578,-47.9148 17.4507,-68.0282 14.1085,-16.4574 29.5816,-39.5814 50.5775,-50.8732 15.1051,-8.5156 29.2588,-15.153 47.3239,-14.7887 27.4195,-0.1169 36.1931,11.3312 48.5947,17.6592 4.4615,2.2765 10.1862,7.4808 14.1095,10.7351 l 21.8873,22.4789 m -178.0563,10.6479 c 5.5385,7.7946 16.1675,7.9674 29.5775,9.4648 5.6883,-0.099 10.097,0.4893 17.2325,-1.0574 17.3263,-5.7713 35.2441,-6.7769 52.5703,-3.0835 l 18.338,7.0986 m -135.6689,44.2324 c 4.7404,5.5081 11.9406,4.8664 18.823,5.0195 m 449.2418,-35.9728 c 16.9669,92.1594 33.5653,184.3446 116.7025,271.8875 m 102.4807,-362.6561 c -2.7274,88.5481 24.075,180.2886 103.7356,277.7435 l -205.798,84.4943 c 7.4607,25.3762 6.9097,50.7523 5.856,76.1285 -5.1131,28.6988 -15.8416,53.888 -46.0117,66.9261 l -762.9582,291.9654 c -61.4502,10.2987 -79.7596,-0.973 -104.9905,-8.784 -37.5361,-12.3911 -66.6057,-35.6678 -96.6246,-57.7238 -27.9218,-30.8959 -52.9472,-66.4262 -75.292,-106.2453 -17.5972,-30.0876 -31.6898,-63.68 -35.9728,-107.0819 -0.655,-29.1382 -8.0411,-46.3101 10.0389,-108.755 8.2403,-16.4527 14.4966,-32.9053 30.1168,-49.358 11.4923,-15.6025 24.8122,-30.7833 50.6129,-43.0838 l 276.0705,-108.755 m 736.2014,-158.3758 c -0.7416,95.524 42.7332,196.3019 110.0282,275.0704"
     id="path860"
     inkscape:connector-curvature="0"
     sodipodi:nodetypes="cccccccccccccccccccccccccccccccccccccccccccccsccscccccccccccccccccsccccccccccccccccccccc" />
  <rect
     style="fill:none;fill-opacity:1;stroke:none;stroke-width:1;stroke-miterlimit:4;stroke-dasharray:none;stroke-opacity:1;opacity:0"
     id="rect2382"
     width="955.94366"
     height="1031.662"
     x="4372.7324"
     y="899.15497" />
  <path
     style="fill:#ffffff;stroke-width:7.55905512;stroke-miterlimit:4;stroke-dasharray:none"
     d="m 2078.8288,1902.2777 c -19.8362,-10.0578 -33.4926,-24.6788 -59.6825,-63.898 -24.864,-37.2337 -36.0682,-63.4103 -50.2648,-117.4346 -6.6721,-25.39 -15.8999,-53.6928 -20.5062,-62.8952 -17.0725,-34.1067 -54.2911,-80.005 -82.5616,-101.8155 -25.6795,-19.8116 -100.862,-64.4152 -127.0656,-75.3844 -48.0341,-20.1077 -103.6346,-64.8521 -140.9591,-113.4365 -14.9924,-19.5153 -20.7567,-23.9184 -55.4575,-42.3611 -36.2429,-19.2623 -47.4997,-27.3576 -65.6141,-47.1864 -11.7188,-12.8279 -18.5675,-17.8082 -29.3911,-21.3731 l -10.16,-3.3463 -0.864,-191.5761 c -0.4752,-105.3669 0.274,-191.57617 1.6648,-191.57617 13.1452,0 79.4507,27.94227 138.0709,58.18547 147.0327,75.8567 259.0762,125.8343 448.4054,200.0139 99.4398,38.9607 110.352,43.6723 130.506,56.3484 15.2999,9.6231 56.4581,23.2308 90.9836,30.081 10.4708,2.0776 22.7508,6.698 27.2888,10.2676 4.5381,3.5696 21.9395,28.7046 38.67,55.8556 16.7305,27.151 40.0724,60.6592 51.8709,74.4627 l 21.4519,25.0974 -11.6738,2.5149 c -6.4206,1.3832 -35.6557,12.4945 -64.9668,24.6917 l -53.2929,22.1768 -16.2584,-15.2078 c -49.4444,-46.2495 -102.467,-43.1585 -149.582,8.7197 -22.7215,25.0187 -30.0863,40.1873 -35.0524,72.1941 -3.5405,22.819 -3.2082,26.204 5.2282,53.2626 10.4564,33.5374 30.2022,73.2603 57.9891,116.6576 19.4159,30.3236 28.5189,53.8789 42.4535,109.8547 3.2072,12.8833 8.7156,33.9651 12.241,46.8483 5.3148,19.4228 5.7593,25.6586 2.6017,36.5044 -9.407,32.312 -27.7068,47.0556 -63.2738,50.9776 -12.0822,1.3323 -18.8767,-0.164 -32.7992,-7.2233 z m 49.9623,-1.7344 c 8.0311,-2.2306 17.648,-9.3442 27.607,-20.4211 8.4056,-9.349 15.2828,-18.0119 15.2828,-19.2509 0,-1.239 -7.2795,-19.5227 -16.1767,-40.6303 -13.9742,-33.1526 -17.3112,-38.5141 -24.5097,-39.3798 -8.6693,-1.0426 -78.5272,24.0754 -85.3505,30.6886 -2.951,2.8601 -0.5146,12.71 10.0389,40.586 7.6646,20.2452 15.1391,38.6679 16.6101,40.9393 6.0069,9.2758 35.8073,13.2149 56.4981,7.4682 z"
     id="path4041"
     inkscape:connector-curvature="0" />
  <path
     style="fill:#ffffff;stroke-width:7.55905512;stroke-miterlimit:4;stroke-dasharray:none"
     d="m 2180.0467,1449.8741 c -9.7209,-3.5591 -18.8817,-4.2175 -33.4631,-2.405 -29.9198,3.7193 -57.7824,3.56 -61.6914,-0.3526 -5.9596,-5.9652 24.0776,-36.6061 47.2226,-48.1718 25.612,-12.7985 47.1148,-13.657 68.9484,-2.7528 15.1934,7.588 44.2365,31.0514 44.2365,35.7379 0,1.9338 -40.4935,20.0383 -50.146,22.4202 -0.947,0.2337 -7.7451,-1.7805 -15.107,-4.4759 z"
     id="path4043"
     inkscape:connector-curvature="0" />
  <path
     style="fill:#ffffff;stroke-width:7.55905512;stroke-miterlimit:4;stroke-dasharray:none"
     d="m 2062.5901,1488.7339 c 1.206,-7.5419 4.402,-19 7.1021,-25.4623 3.8072,-9.1119 6.2281,-11.2181 10.7836,-9.3818 12.5649,5.0649 31.5006,5.7128 52.2944,1.7893 20.3263,-3.8353 48.9707,-2.2413 48.9327,2.7231 -0.03,3.9751 -101.7783,44.1528 -111.6755,44.0979 -9.3936,-0.052 -9.5762,-0.3902 -7.4373,-13.7662 z"
     id="path4045"
     inkscape:connector-curvature="0" />
  <path
     style="fill:#ffffff;stroke-width:7.55905512;stroke-miterlimit:4;stroke-dasharray:none"
     d="m 2088.3165,1892.9392 c -10.4943,-3.6706 -12.4454,-6.7032 -24.0989,-37.4571 -6.9741,-18.4047 -12.753,-34.989 -12.842,-36.854 -0.1655,-3.4686 69.3441,-31.7453 78.036,-31.7453 2.6429,0 6.3002,4.1411 8.1273,9.2024 1.8272,5.0612 8.6353,21.4893 15.1293,36.5067 l 11.8071,27.3043 -12.089,14.1234 c -18.7162,21.8656 -38.7412,27.7789 -64.0698,18.9196 z"
     id="path4047"
     inkscape:connector-curvature="0" />
  <path
     style="fill:#ffffff;stroke-width:7.55905512;stroke-miterlimit:4;stroke-dasharray:none"
     d="m 1744.0855,2168.2535 c -46.8897,-15.5649 -94.6039,-48.6477 -124.6558,-86.4304 -26.4859,-33.2994 -60.1019,-88.0664 -71.945,-117.2126 -9.8306,-24.1932 -18.295,-70.3062 -18.295,-99.6689 0,-30.1265 8.8522,-69.7439 20.47,-91.6125 12.0596,-22.7002 44.9856,-59.6284 60.2902,-67.6185 6.1948,-3.2341 72.2023,-29.8984 146.6832,-59.254 154.2376,-60.7905 136.4537,-58.3956 162.3986,-21.8697 21.6143,30.4291 30.0927,49.7062 41.9731,95.4331 13.764,52.9761 27.8252,86.2999 51.305,121.5879 39.2767,59.0292 65.5832,78.4535 101.2628,74.7711 36.9723,-3.8159 53.4884,-16.6831 67.1859,-52.3424 5.655,-14.7218 5.6018,-15.2876 -5.348,-56.8873 -6.0829,-23.1096 -13.0259,-51.0917 -15.4288,-62.1823 -6.4888,-29.9482 -18.9747,-58.1877 -39.9651,-90.3899 -25.0626,-38.4494 -41.2052,-70.9099 -52.3569,-105.2822 -7.6217,-23.4922 -8.4173,-28.8998 -4.5703,-31.0642 13.0374,-7.335 296.6819,-124.2544 311.0432,-128.2132 21.7906,-6.0068 45.7933,-5.9214 60.4804,0.2153 17.8523,7.4591 50.467,34.4736 69.9377,57.9288 17.2236,20.7482 17.5533,21.5725 26.77,66.9262 18.6934,91.9875 43.5783,150.369 87.59,205.4922 22.9025,28.6844 24.2674,31.365 26.4771,51.9984 4.9184,45.9273 -6.1576,85.294 -28.4676,101.18 -5.5239,3.9334 -97.7981,40.7629 -205.0538,81.8434 -107.2557,41.0805 -280.6662,107.4833 -385.3568,147.5618 l -190.3465,72.87 -30.5099,1.2647 c -27.0964,1.1233 -33.9845,0.1115 -61.5677,-9.0448 z"
     id="path4049"
     inkscape:connector-curvature="0" />
  <path
     style="fill:#ffffff;stroke-width:7.55905512;stroke-miterlimit:4;stroke-dasharray:none"
     d="m 2622.2018,1713.0657 c -25.8462,-32.6861 -48.4761,-74.9884 -62.5485,-116.9225 -11.5911,-34.5398 -30.4977,-119.7302 -27.0371,-121.8249 2.9154,-1.7648 91.0662,-38.7979 92.3514,-38.7979 0.5637,0 2.1092,11.6703 3.4343,25.9339 6.7277,72.4159 38.7742,152.036 87.5461,217.5101 9.9396,13.3434 17.4416,24.2607 16.6711,24.2607 -0.7704,0 -21.2046,8.1894 -45.4094,18.1986 l -44.0086,18.1986 z"
     id="path4051"
     inkscape:connector-curvature="0" />
  <path
     style="fill:#ffffff;stroke-width:7.55905512;stroke-miterlimit:4;stroke-dasharray:none"
     d="m 2722.4463,1675.3901 c -49.8562,-66.851 -83.3987,-151.6943 -86.1941,-218.0219 l -1.1076,-26.2787 51.3417,-21.456 c 28.2379,-11.8008 51.9677,-20.8299 52.7329,-20.0647 0.7651,0.7652 2.8466,16.6661 4.6254,35.3353 6.9536,72.9796 32.2069,139.4061 76.4315,201.046 9.959,13.8807 18.7146,26.8206 19.457,28.7553 0.7424,1.9346 -21.3107,12.7875 -49.0069,24.1175 l -50.3567,20.6001 z"
     id="path4053"
     inkscape:connector-curvature="0" />
  <path
     style="fill:#ffffff;stroke-width:7.55905512;stroke-miterlimit:4;stroke-dasharray:none"
     d="m 2831.2631,1628.7697 c -51.0889,-69.9304 -83.4755,-159.5764 -80.0915,-221.6929 l 1.0938,-20.0778 20.365,20.2263 c 16.3109,16.1999 48.2343,62.2269 48.2343,69.5439 0,0.8792 -4.5175,3.1734 -10.0389,5.0981 -9.0822,3.1661 -10.0389,4.8887 -10.0389,18.075 0,15.5932 14.1403,48.5683 22.1439,51.6396 2.4986,0.9588 9.3234,0.077 15.1662,-1.9601 5.8429,-2.0369 11.1287,-3.1981 11.7463,-2.5805 0.6175,0.6175 4.198,13.0475 7.9566,27.6221 11.0119,42.7001 9.2661,81.7134 -3.6566,81.7134 -1.4912,0 -11.7873,-12.4232 -22.8802,-27.6071 z"
     id="path4055"
     inkscape:connector-curvature="0" />
  <path
     style="fill:#ffffff;stroke-width:7.55905512;stroke-miterlimit:4;stroke-dasharray:none"
     d="m 2816.1446,1528.56 c -4.7658,-9.5637 -8.6651,-22.2001 -8.6651,-28.0808 0,-8.7428 1.5973,-11.0932 8.7606,-12.8911 4.8184,-1.2093 9.2354,-1.724 9.8157,-1.1438 0.5802,0.5803 5.581,12.3201 11.1127,26.0885 l 10.0578,25.0334 -7.3247,4.0726 c -11.9588,6.6492 -14.6699,5.1567 -23.757,-13.0788 z"
     id="path4057"
     inkscape:connector-curvature="0" />
  <path
     style="fill:#ffffff;stroke-width:7.55905512;stroke-miterlimit:4;stroke-dasharray:none"
     d="m 3248.0768,1975.3915 c -5.054,-5.0539 -1.5359,-177.379 5.7271,-280.5322 8.4219,-119.6126 7.3611,-138.8023 -9.5142,-172.104 -22.4474,-44.2978 -77.8466,-77.9123 -128.9498,-78.2427 -22.358,-0.1445 -86.7054,21.0262 -185.4947,61.0289 -36.6854,14.8551 -68.7731,27.3885 -71.306,27.8521 -2.9324,0.5367 -8.3626,-8.598 -14.9488,-25.1471 -5.6889,-14.2946 -9.7414,-26.5203 -9.0054,-27.1682 4.1135,-3.6216 225.6756,-82.8256 240.7165,-86.0513 24.8076,-5.3203 70.47,-2.0574 96.8309,6.9193 28.4143,9.6759 62.3779,32.7774 87.1992,59.3115 48.9687,52.3477 53.8447,87.3972 38.3104,275.3864 -6.8486,82.8796 -11.0466,115.1813 -22.2939,171.5423 -11.3991,57.1215 -14.8483,69.4359 -19.4485,69.4359 -3.0756,0 -6.5959,-1.0039 -7.8228,-2.2309 z"
     id="path4059"
     inkscape:connector-curvature="0" />
  <path
     style="fill:#ffffff;stroke-width:7.55905512;stroke-miterlimit:4;stroke-dasharray:none"
     d="m 3248.0768,1975.3915 c -4.8867,-4.8866 -1.9562,-166.7708 4.7701,-263.5047 8.8991,-127.9832 7.8707,-154.6413 -7.1423,-185.137 -20.2329,-41.099 -58.4418,-68.9919 -108.8496,-79.4614 -22.6625,-4.7069 -24.924,-4.5759 -53.6404,3.1091 -32.8581,8.7934 -91.0399,30.0236 -173.6727,63.372 -29.4475,11.8842 -54.4647,20.5981 -55.5938,19.3642 -3.3751,-3.6885 -20.8854,-50.7012 -19.3984,-52.082 3.913,-3.6336 224.9036,-82.6383 240.4862,-85.9744 25.1113,-5.3763 70.607,-2.1496 97.1912,6.893 28.9183,9.8365 61.5738,31.995 86.6375,58.7882 49.4754,52.8893 54.3707,87.7225 38.8198,276.228 -6.8352,82.855 -10.9777,114.6662 -22.294,171.2 -11.4305,57.1046 -14.8919,69.4359 -19.4908,69.4359 -3.0756,0 -6.5959,-1.0039 -7.8228,-2.2309 z"
     id="path4061"
     inkscape:connector-curvature="0" />
  <path
     style="fill:none;stroke:#000000;stroke-width:7.55905512;stroke-linecap:butt;stroke-linejoin:miter;stroke-opacity:1;stroke-miterlimit:4;stroke-dasharray:none"
     d="m 2195.1783,1579.156 123.8134,294.4751 224.2026,-87.004 -123.8134,-287.7825 z"
     id="path832"
     inkscape:connector-curvature="0" />
  <flowRoot
     xml:space="preserve"
     id="flowRoot834"
     style="fill:black;fill-opacity:1;stroke:none;font-family:'Comic Sans MS';font-style:normal;font-weight:bold;font-size:64px;line-height:1.25;letter-spacing:0px;word-spacing:0px;-inkscape-font-specification:'Comic Sans MS Bold';font-stretch:normal;font-variant:normal;"><flowRegion
       id="flowRegion836"
       style="font-size:64px;"><rect
         id="rect838"
         width="394.86438"
         height="224.20265"
         x="2349.1084"
         y="2151.3748"
         style="font-size:64px;" /></flowRegion><flowPara
       id="flowPara840" /></flowRoot>  <g
     aria-label="Alumina Solution"
     transform="rotate(65.2)"
     style="font-style:normal;font-variant:normal;font-weight:bold;font-stretch:normal;font-size:64px;line-height:1.25;font-family:'Comic Sans MS';-inkscape-font-specification:'Comic Sans MS Bold';letter-spacing:0px;word-spacing:0px;fill:#000000;fill-opacity:1;stroke:none;stroke-width:7.55905512;stroke-miterlimit:4;stroke-dasharray:none"
     id="text844">
    <path
       d="m 2451.7751,-1463.8665 q -2.4687,-0.094 -4.9687,-5.8125 -1.6563,-3.6875 -2.8438,-8.5 -2.3125,0.3438 -7.5625,0.6875 -4.9375,0.3438 -7.5625,0.8125 -1.4375,3.4375 -5,10.3438 -1.375,2.25 -3.8125,2.25 -1.7187,0 -3.0937,-1.1563 -1.375,-1.1875 -1.375,-3 0,-1.5937 4.5625,-10.8125 -0.4375,-0.9687 -0.375,-1.8125 0.125,-1.5 3.0312,-2.3437 4.4375,-7.6875 9.875,-15.9375 7.8125,-11.8438 9.625,-11.8438 3.4375,0 4.5938,4.1563 0.625,3.3437 1.9687,10.0312 1.9063,9 4.6563,20.5938 0.2187,0.875 1.5937,4.125 1.125,2.6875 1.125,4.0312 0,1.8125 -1.375,3.0313 -1.3437,1.2187 -3.0625,1.1562 z m -11.6562,-32.0625 q -2.4375,4.1875 -6.7188,11.4063 1.4063,-0.3125 4.375,-0.5 3.5,-0.2188 4.4063,-0.3438 -0.75,-4.0625 -2.0625,-10.5625 z"
       style="stroke-width:7.55905512;stroke-miterlimit:4;stroke-dasharray:none"
       id="path4552" />
    <path
       d="m 2472.4001,-1469.3977 q 0,5.9375 -4.3125,5.9375 -1.875,0 -3.0937,-1.1875 -1.2188,-1.1875 -1.2188,-3.0625 v -43.2188 q 0,-1.8125 1.3125,-2.9687 1.25,-1.0625 3.0938,-1.0625 1.8437,0 3.0312,1.125 1.1875,1.0937 1.1875,2.9062 z"
       style="stroke-width:7.55905512;stroke-miterlimit:4;stroke-dasharray:none"
       id="path4554" />
    <path
       d="m 2507.6501,-1482.8665 q 0,2.0938 0.031,6.3125 0.031,4.2188 0.031,6.3125 0,0.6563 0.094,1.9688 0.125,1.2812 0.125,1.9375 0,1.75 -1.2813,2.875 -1.25,1.1562 -3.0937,1.1562 -2.5938,0 -3.7813,-2.3437 -4,1.4687 -8.2812,1.4687 -4.4375,0 -7.4688,-1.875 -3.4062,-2.1562 -4.0625,-6.2812 -1.2187,-7.8125 -1.2187,-13.9688 0,-4.0625 0.9375,-9.2812 0.625,-3.5313 4.2187,-3.5313 1.8125,0 3.0938,1.1563 1.2812,1.125 1.2812,2.875 0,1.375 -0.4687,4.3125 -0.4375,2.9375 -0.4375,4.4687 0,4.4063 0.2812,7.7188 0.3125,3.2812 0.9063,5.4375 0.7812,0.3437 1.5,0.5312 0.75,0.1875 1.4375,0.1875 3.4687,0 7.625,-1 0,-2.4062 -0.031,-5.4687 -0.062,-3.6563 -0.062,-5.25 0,-6.4063 0.5938,-11.0625 0.4687,-3.7188 4.25,-3.7188 1.8437,0 3.1562,1.1563 1.3125,1.1562 1.2188,2.9062 -0.5938,11.9063 -0.5938,11 z"
       style="stroke-width:7.55905512;stroke-miterlimit:4;stroke-dasharray:none"
       id="path4556" />
    <path
       d="m 2521.6189,-1492.4602 q 4.7187,-5.4688 8.9375,-5.4688 4.8125,0 7.0625,3.6563 1.9062,-1.6875 4.2187,-2.5313 2.3125,-0.8437 5,-0.8437 6.125,0 8.3125,6.0937 0.4375,1.25 1.3438,8.4688 0.875,5.0625 2.25,16.875 0.125,1.7812 -1.2188,2.9375 -1.3437,1.1562 -3.1562,1.1562 -3.5938,0 -4.2188,-3.5625 -0.5625,-3.2187 -1.1562,-9.0937 -0.625,-6.4375 -1.0313,-9.125 -0.8437,-5.5938 -2.1562,-5.5938 -0.7188,0 -3.2813,1.4375 -2.5625,1.4375 -3.75,2.4688 0,3.5625 0.8438,10.25 0.875,6.8437 0.875,10.25 0,1.7812 -1.2188,2.9687 -1.2187,1.1875 -3.0937,1.1875 -1.875,0 -3.0938,-1.1875 -1.2187,-1.1875 -1.2187,-2.9687 0,-3.5625 -0.7813,-10.4688 -0.75,-6.9375 -0.75,-10.5 0,-2 -0.3437,-3.1875 -3.625,2.0938 -7.2813,6.9688 -0.1562,0.2187 -0.5312,0.6562 -0.125,6.3125 -0.125,9.9063 0,0.875 -0.062,2.375 -0.062,1.4687 -0.062,2.1875 0,1.6875 -1.375,2.6562 -1.25,0.9063 -3.0938,0.9063 -2.6562,0 -3.5937,-2.3125 -0.6563,-1.5625 -0.6563,-4.9688 v -11.625 q 0,-1.5625 -0.125,-4.5625 -0.125,-3.0312 -0.125,-4.5937 0,-2.7813 1,-5.0313 1.2188,-2.8125 3.4375,-2.8125 1.75,0 3.125,1.375 1.375,1.3438 1.375,2.9688 0,-0.6563 -0.2812,2.6875 z"
       style="stroke-width:7.55905512;stroke-miterlimit:4;stroke-dasharray:none"
       id="path4558" />
    <path
       d="m 2570.4001,-1502.3665 q -2,0 -3.4687,-1.3437 -1.4688,-1.3438 -1.4688,-3.2813 0,-1.9375 1.4688,-3.2812 1.4687,-1.3438 3.4687,-1.3438 2,0 3.4375,1.3438 1.4688,1.3437 1.4688,3.2812 0,1.9375 -1.4688,3.2813 -1.4375,1.3437 -3.4375,1.3437 z m 2.6563,22.9063 q 0,1.7812 0.094,5.7187 0.125,3.9375 0.125,5.7188 0,1.8125 -1.2187,3 -1.2188,1.1562 -3.0938,1.1562 -1.875,0 -3.0937,-1.1562 -1.2188,-1.1875 -1.2188,-3 0,-1.7813 -0.125,-5.7188 -0.094,-3.9375 -0.094,-5.7187 0,-2.7813 0.3125,-6.9688 0.3125,-4.1875 0.3125,-6.9687 0,-1.8125 1.2187,-2.9688 1.2188,-1.1875 3.0938,-1.1875 1.875,0 3.0937,1.1875 1.2188,1.1563 1.2188,2.9688 0,2.7812 -0.3125,6.9687 -0.3125,4.1875 -0.3125,6.9688 z"
       style="stroke-width:7.55905512;stroke-miterlimit:4;stroke-dasharray:none"
       id="path4560" />
    <path
       d="m 2605.9001,-1462.5852 q -3.8437,0 -4.2812,-3.7813 -0.4375,-3.2187 -0.875,-6.4687 -0.4688,-3.4375 -0.4688,-6.4688 0,-0.8125 0.094,-2.7812 0.125,-1.9688 0.125,-2.7813 0,-0.2187 0.062,-1.0937 0.062,-0.9063 0.062,-1.4688 0,-2.5937 -1.3438,-2.5937 -2.875,0 -5.6562,3.375 -2.75,3.3437 -4.3125,8.5 -0.062,1.0312 -0.2813,2.75 -0.1875,1.4062 -0.1875,2.75 0,0.875 0.1875,2.6562 0.2188,1.75 0.2188,2.625 0,1.7813 -1.25,2.9375 -1.2188,1.1875 -3.0938,1.1875 -1.875,0 -3.0937,-1.1875 -1.2188,-1.1562 -1.2188,-2.9375 0,-0.875 -0.1875,-2.625 -0.1875,-1.7812 -0.1875,-2.6562 0,-3 0.4375,-8.3438 0.4375,-5.3437 0.4375,-8.3437 0,-0.9375 -0.125,-2.7813 -0.094,-1.875 -0.094,-2.7812 0,-1.75 1.25,-2.875 1.2812,-1.1563 3.125,-1.1563 4.0937,0 4.375,4.9063 l 0.031,0.3437 q 4.5625,-4.5937 9.625,-4.5937 5.9063,0 8.1563,4.9375 1.5,3.3125 1.5,9.9062 v 2.2188 q -0.031,1.4375 -0.031,2.0312 0,2.4375 0.6563,6.2813 0.6875,3.8437 0.6875,6.25 0,1.75 -1.25,2.9062 -1.25,1.1563 -3.0938,1.1563 z"
       style="stroke-width:7.55905512;stroke-miterlimit:4;stroke-dasharray:none"
       id="path4562" />
    <path
       d="m 2641.7439,-1462.7415 q -1.4375,0 -4.5625,-3.125 -2.875,1.375 -5.0625,2.0625 -2.1875,0.7188 -3.7188,0.7188 -7.5312,0 -11.3125,-4.0313 -3.75,-4.0312 -3.75,-12.0625 0,-7.5312 5.5625,-12.875 5.5625,-5.375 13.3125,-5.375 2.9688,0 6.875,1.6875 4.7188,2.0313 4.7188,4.7188 0,1.125 -0.7188,1.9687 -0.3125,1.25 -0.5,3.1563 -0.1562,1.875 -0.1562,4.4062 0,5.9688 0.8437,8.5938 0.094,0.2812 1.4375,3.25 1.2188,2.6875 1.2188,3.0625 0,1.6562 -1.2813,2.75 -1.25,1.0937 -2.9062,1.0937 z m -7.75,-21.4375 q 0,-1 0.125,-2.2812 0.1562,-1.3125 0.4375,-2.9063 -0.625,-0.3125 -1.125,-0.4375 -0.4688,-0.1562 -0.8125,-0.1562 -4.25,0 -7.4375,3.3437 -3.1875,3.3125 -3.1875,7.6875 0,4.1875 1.5,6.3125 1.5,2.0938 4.5,2.0938 1.9375,0 3.6562,-0.625 1.75,-0.6563 3.2813,-1.9063 -0.9375,-7.4375 -0.9375,-11.125 z"
       style="stroke-width:7.55905512;stroke-miterlimit:4;stroke-dasharray:none"
       id="path4564" />
    <path
       d="m 2430.5564,-1382.8977 q -7.9375,0 -12.5,-3.5313 -3.8438,-2.9375 -3.8438,-6.7812 0,-1.9688 1.1875,-3.25 1.1875,-1.3125 3.2813,-1.3125 2.8125,0 4.125,2.875 1.7812,3.8437 8.0625,3.8437 5.375,0 10.4062,-2.3437 5.2188,-2.4063 5.2188,-5.2813 0,-3.9375 -3.25,-5.1875 -2.3125,-0.9062 -9.2813,-1.0625 -5.4062,-0.125 -9.6875,-2.0312 -5.7812,-2.5938 -5.6875,-7.4375 0.094,-6.0938 6.5,-11.1563 6.4063,-5.0937 14.125,-5.0937 3.0625,0 7.5625,1.4062 5.5938,1.75 5.5938,4.0313 0,1.625 -1.125,2.875 -1.25,1.4062 -3.2188,1.4062 -1.4687,0 -4.4062,-0.625 -2.9063,-0.625 -4.4063,-0.625 -4.0312,0.031 -7.6562,1.9375 -3.75,1.9375 -3.75,4.2188 0,1.1875 1.125,1.9687 1.1562,0.75 3.4375,1.0625 4,0.2188 7.9687,0.4375 6.9375,0.5313 10.9688,3.9063 4.4375,3.75 4.4375,10.375 0,8.0625 -9.1875,12.2187 -7,3.1563 -16,3.1563 z"
       style="stroke-width:7.55905512;stroke-miterlimit:4;stroke-dasharray:none"
       id="path4566" />
    <path
       d="m 2473.1501,-1382.9602 q -5.7812,0 -9.9375,-3.9688 -4.5625,-4.3437 -4.7812,-11.5937 -0.2188,-6.9063 3.7812,-12.3125 4.75,-6.375 13.2188,-6.375 6.25,0 9.9375,5 3.3125,4.5 3.3125,11.1562 0,7.25 -3.875,12.375 -4.3438,5.7188 -11.6563,5.7188 z m 1.875,-26 q -3.8437,-0.031 -6.0625,3.5 -1.875,2.9687 -1.875,6.9375 0,3.75 2.125,5.75 1.6875,1.5937 3.9375,1.5937 2.7188,0 4.7188,-1.8437 2.2812,-2.1563 2.4375,-5.8438 0.4062,-10.0625 -5.2813,-10.0937 z"
       style="stroke-width:7.55905512;stroke-miterlimit:4;stroke-dasharray:none"
       id="path4568" />
    <path
       d="m 2503.5251,-1389.3977 q 0,5.9375 -4.3125,5.9375 -1.875,0 -3.0937,-1.1875 -1.2188,-1.1875 -1.2188,-3.0625 v -43.2188 q 0,-1.8125 1.3125,-2.9687 1.25,-1.0625 3.0938,-1.0625 1.8437,0 3.0312,1.125 1.1875,1.0937 1.1875,2.9062 z"
       style="stroke-width:7.55905512;stroke-miterlimit:4;stroke-dasharray:none"
       id="path4570" />
    <path
       d="m 2538.7751,-1402.8665 q 0,2.0938 0.031,6.3125 0.031,4.2188 0.031,6.3125 0,0.6563 0.094,1.9688 0.125,1.2812 0.125,1.9375 0,1.75 -1.2813,2.875 -1.25,1.1562 -3.0937,1.1562 -2.5938,0 -3.7813,-2.3437 -4,1.4687 -8.2812,1.4687 -4.4375,0 -7.4688,-1.875 -3.4062,-2.1562 -4.0625,-6.2812 -1.2187,-7.8125 -1.2187,-13.9688 0,-4.0625 0.9375,-9.2812 0.625,-3.5313 4.2187,-3.5313 1.8125,0 3.0938,1.1563 1.2812,1.125 1.2812,2.875 0,1.375 -0.4687,4.3125 -0.4375,2.9375 -0.4375,4.4687 0,4.4063 0.2812,7.7188 0.3125,3.2812 0.9063,5.4375 0.7812,0.3437 1.5,0.5312 0.75,0.1875 1.4375,0.1875 3.4687,0 7.625,-1 0,-2.4062 -0.031,-5.4687 -0.062,-3.6563 -0.062,-5.25 0,-6.4063 0.5938,-11.0625 0.4687,-3.7188 4.25,-3.7188 1.8437,0 3.1562,1.1563 1.3125,1.1562 1.2188,2.9062 -0.5938,11.9063 -0.5938,11 z"
       style="stroke-width:7.55905512;stroke-miterlimit:4;stroke-dasharray:none"
       id="path4572" />
    <path
       d="m 2566.7126,-1409.9602 q -0.6562,0 -1.5625,-0.031 -0.875,-0.062 -1.5312,-0.062 -1.2813,0 -2.9688,0.25 0.5625,12.625 0.5625,16.5 0,0.4063 0.031,1.5313 0.031,1.0937 0.031,1.7812 0,7.1875 -4.5312,7.1875 -1.7188,0 -2.9688,-1.0625 -1.375,-1.125 -1.375,-2.8125 0,-1.125 0.094,-3.375 0.094,-2.25 0.094,-3.375 0,-3.7812 -0.5625,-16.1875 -1.9375,-0.094 -5.875,-0.5 -3.9062,-0.4375 -3.9062,-4.0625 0,-1.75 1.1875,-2.9687 1.1875,-1.2188 3.0625,-1.2188 1.1562,0 5.3125,0.375 -0.031,-1 -0.1563,-3.3125 -0.125,-2 -0.125,-3.0937 0,-1.75 1.2813,-2.9063 1.2812,-1.1562 3.0937,-1.1562 4.625,0 4.625,7.7812 l -0.062,2.5625 q 1.9375,-0.2812 3.1563,-0.2812 3.5937,0 4.9062,0.4687 2.5,0.875 2.5,3.8125 0,1.7813 -1.2187,2.9688 -1.2188,1.1875 -3.0938,1.1875 z"
       style="stroke-width:7.55905512;stroke-miterlimit:4;stroke-dasharray:none"
       id="path4574" />
    <path
       d="m 2581.9001,-1422.3665 q -2,0 -3.4687,-1.3437 -1.4688,-1.3438 -1.4688,-3.2813 0,-1.9375 1.4688,-3.2812 1.4687,-1.3438 3.4687,-1.3438 2,0 3.4375,1.3438 1.4688,1.3437 1.4688,3.2812 0,1.9375 -1.4688,3.2813 -1.4375,1.3437 -3.4375,1.3437 z m 2.6563,22.9063 q 0,1.7812 0.094,5.7187 0.125,3.9375 0.125,5.7188 0,1.8125 -1.2187,3 -1.2188,1.1562 -3.0938,1.1562 -1.875,0 -3.0937,-1.1562 -1.2188,-1.1875 -1.2188,-3 0,-1.7813 -0.125,-5.7188 -0.094,-3.9375 -0.094,-5.7187 0,-2.7813 0.3125,-6.9688 0.3125,-4.1875 0.3125,-6.9687 0,-1.8125 1.2187,-2.9688 1.2188,-1.1875 3.0938,-1.1875 1.875,0 3.0937,1.1875 1.2188,1.1563 1.2188,2.9688 0,2.7812 -0.3125,6.9687 -0.3125,4.1875 -0.3125,6.9688 z"
       style="stroke-width:7.55905512;stroke-miterlimit:4;stroke-dasharray:none"
       id="path4576" />
    <path
       d="m 2605.6501,-1382.9602 q -5.7812,0 -9.9375,-3.9688 -4.5625,-4.3437 -4.7812,-11.5937 -0.2188,-6.9063 3.7812,-12.3125 4.75,-6.375 13.2188,-6.375 6.25,0 9.9375,5 3.3125,4.5 3.3125,11.1562 0,7.25 -3.875,12.375 -4.3438,5.7188 -11.6563,5.7188 z m 1.875,-26 q -3.8437,-0.031 -6.0625,3.5 -1.875,2.9687 -1.875,6.9375 0,3.75 2.125,5.75 1.6875,1.5937 3.9375,1.5937 2.7188,0 4.7188,-1.8437 2.2812,-2.1563 2.4375,-5.8438 0.4062,-10.0625 -5.2813,-10.0937 z"
       style="stroke-width:7.55905512;stroke-miterlimit:4;stroke-dasharray:none"
       id="path4578" />
    <path
       d="m 2651.0251,-1382.5852 q -3.8437,0 -4.2812,-3.7813 -0.4375,-3.2187 -0.875,-6.4687 -0.4688,-3.4375 -0.4688,-6.4688 0,-0.8125 0.094,-2.7812 0.125,-1.9688 0.125,-2.7813 0,-0.2187 0.062,-1.0937 0.062,-0.9063 0.062,-1.4688 0,-2.5937 -1.3438,-2.5937 -2.875,0 -5.6562,3.375 -2.75,3.3437 -4.3125,8.5 -0.062,1.0312 -0.2813,2.75 -0.1875,1.4062 -0.1875,2.75 0,0.875 0.1875,2.6562 0.2188,1.75 0.2188,2.625 0,1.7813 -1.25,2.9375 -1.2188,1.1875 -3.0938,1.1875 -1.875,0 -3.0937,-1.1875 -1.2188,-1.1562 -1.2188,-2.9375 0,-0.875 -0.1875,-2.625 -0.1875,-1.7812 -0.1875,-2.6562 0,-3 0.4375,-8.3438 0.4375,-5.3437 0.4375,-8.3437 0,-0.9375 -0.125,-2.7813 -0.094,-1.875 -0.094,-2.7812 0,-1.75 1.25,-2.875 1.2812,-1.1563 3.125,-1.1563 4.0937,0 4.375,4.9063 l 0.031,0.3437 q 4.5625,-4.5937 9.625,-4.5937 5.9063,0 8.1563,4.9375 1.5,3.3125 1.5,9.9062 v 2.2188 q -0.031,1.4375 -0.031,2.0312 0,2.4375 0.6563,6.2813 0.6875,3.8437 0.6875,6.25 0,1.75 -1.25,2.9062 -1.25,1.1563 -3.0938,1.1563 z"
       style="stroke-width:7.55905512;stroke-miterlimit:4;stroke-dasharray:none"
       id="path4580" />
  </g>
</svg>
