<?xml version="1.0" encoding="UTF-8" standalone="no"?>
<!-- Created with Inkscape (http://www.inkscape.org/) -->

<svg
   xmlns:dc="http://purl.org/dc/elements/1.1/"
   xmlns:cc="http://creativecommons.org/ns#"
   xmlns:rdf="http://www.w3.org/1999/02/22-rdf-syntax-ns#"
   xmlns:svg="http://www.w3.org/2000/svg"
   xmlns="http://www.w3.org/2000/svg"
   xmlns:sodipodi="http://sodipodi.sourceforge.net/DTD/sodipodi-0.dtd"
   xmlns:inkscape="http://www.inkscape.org/namespaces/inkscape"
   version="1.1"
   id="svg4530"
   width="5376"
   height="4032"
   viewBox="0 0 5376 4032"
   sodipodi:docname="beltgrinder.svg"
   inkscape:version="0.92.4 (5da689c313, 2019-01-14)">
  <metadata
     id="metadata4536">
    <rdf:RDF>
      <cc:Work
         rdf:about="">
        <dc:format>image/svg+xml</dc:format>
        <dc:type
           rdf:resource="http://purl.org/dc/dcmitype/StillImage" />
        <dc:title />
      </cc:Work>
    </rdf:RDF>
  </metadata>
  <defs
     id="defs4534" />
  <sodipodi:namedview
     pagecolor="#ffffff"
     bordercolor="#666666"
     borderopacity="1"
     objecttolerance="10"
     gridtolerance="10"
     guidetolerance="10"
     inkscape:pageopacity="0"
     inkscape:pageshadow="2"
     inkscape:window-width="1366"
     inkscape:window-height="705"
     id="namedview4532"
     showgrid="false"
     inkscape:zoom="0.074709201"
     inkscape:cx="3440.5554"
     inkscape:cy="-138.05184"
     inkscape:window-x="-8"
     inkscape:window-y="-8"
     inkscape:window-maximized="1"
     inkscape:current-layer="svg4530" />
  <path
     style="fill:none;stroke:#000500;stroke-width:7.55905512;stroke-linecap:butt;stroke-linejoin:miter;stroke-miterlimit:4;stroke-dasharray:none;stroke-opacity:1"
     d="m 1552.687,3011.376 548.7945,-30.1168 1823.738,-43.502 c 173.9867,6.1341 286.8266,94.4646 326.265,182.3738 57.1308,108.6409 38.2334,179.4029 -8.8929,272.9958 -82.3673,123.1872 -181.8453,170.2098 -293.4085,201.1267 l -1355.831,35.493 -948.8451,35.4929 c -113.236,-15.809 -226.1076,-23.2365 -345.4647,-179.831 -57.3287,-87.2329 -70.2826,-191.8547 -27.3022,-294.0217 5.964,-14.1767 29.0625,-42.0367 38.4401,-55.3635 60.4129,-87.9716 151.4755,-97.9123 242.5068,-124.6472 z m 2677.0465,70.2725 -197.4322,-314.553 c -49.4108,-79.9383 -107.7046,-149.8832 -227.5489,-150.5838 l -740.5271,0.5024 m -1329.8028,390.4225 c 99.9242,24.75 193.98,71.8 262.6479,215.324 28.5621,82.4736 33.5816,162.807 -7.0986,238.9859 -82.5066,132.7728 -186.8227,150.9328 -241.3521,170.3662 -99.5575,-2.2244 -186.8528,22.1194 -321.8028,-56.7888 -72.9768,-46.1968 -119.0771,-124.6455 -160.9014,-208.2253 -15.6885,-153.5587 18.5748,-165.5874 37.8591,-220.0563 57.9549,-81.8564 150.9871,-111.0969 246.0846,-137.2395 z m 283.9437,383.324 92.2817,-404.6198 -2.3662,2.3662 m 1429.1831,373.8592 -146.7042,-406.9859 v 0 0 m -1332.169,269.7465 1414.9859,-26.0282 v 0 0 m 428.2817,-257.9155 c -119.243,17.211 -214.679,17.9899 -350.1972,210.5915 -13.3848,67.4979 -53.7687,99.6893 9.4648,267.3803 96.4275,137.188 178.231,135.4478 262.6479,158.5352 108.7112,-3.5847 216.9284,-14.5808 319.4366,-111.2112 44.3151,-48.6673 92.0744,-73.2257 118.3098,-248.4507 -39.9198,-118.9375 -46.2633,-249.0672 -359.6619,-276.8451 z m -614.0282,11.831 c 1.0944,10.8099 15.7497,15.6869 -30.7606,47.3239 l -517.0141,16.5634 c -85.6549,33.5031 -57.5996,151.3407 -7.0985,194.0282 l -352.5634,2.3662 c 35.2084,-53.6157 126.4834,-89.7703 40.2253,-186.9296 -124.706,-10.4912 -155.3803,-5.5211 -234.2535,-9.4648 -14.1972,-0.823 -28.3943,-1.5223 -42.5915,-33.1268 h 7.0985 m -601.014,-274.4788 47.3239,-49.6902 c 59.3347,-31.2796 124.047,-50.3521 202.3099,-53.2394 80.243,-6.4432 117.5413,19.8391 154.9859,27.2113 l 4.7324,4.7324 m -318.2535,2.3661 60.338,-87.5492 c 83.1551,-89.7524 154.8554,-73.7434 186.9296,-80.4507 122.2674,13.8255 152.5803,63.776 189.2957,111.2112 L 2100,2624.1127 c 57.2094,14.2235 82.1291,-3.8428 119.493,-9.4648 7.8251,-19.1162 18.1916,-26.1033 28.8844,-36.6166 21.7572,-10.715 31.8542,-5.5869 48.017,-10.7074 28.4309,-27.7896 17.8294,-62.5208 46.1408,-97.014 78.1572,-9.8236 101.9436,-0.986 148.4788,-1.7747 4.411,-22.4675 0.2405,-25.6827 2.3663,-43.7746 5.5176,-9.6608 18.7446,-15.0835 38.4507,-18.3381 33.5072,-8.0976 61.1493,16.2459 58.5633,21.2958 2.6172,21.8513 -3.7552,36.7271 5.0369,43.1411 5.7259,-0.6448 6.5955,-4.0273 13.8928,0.042 l 6.9971,32.5844 m 1295.5131,139.7962 -83.6577,-51.8678 c -36.9541,-19.8863 -94.0529,-30.5988 -152.257,-28.4436 -37.749,3.8889 -73.1884,11.2422 -102.0624,28.4436 l -41.8288,25.0974 v 0 m -1901.7184,26.5306 c -24.8382,-32.848 -39.2117,-70.1809 -53.2395,-107.662 -23.5721,-8.2205 -56.9934,3.4502 -72.169,-27.2113 -14.6775,-41.2089 1.0811,-62.6202 53.2394,-66.2535 -6.9484,-70.8167 1.3754,-144.5866 26.0282,-215.324 23.9896,-47.2828 45.6087,-96.8114 81.6338,-146.7042 L 1764,1949.7464 c 6.3861,-14.8663 28.7335,-29.7327 55.4691,-44.599 l 35.6295,-35.8517 c 10.9979,-19.5433 29.1068,-35.5312 46.1408,-52.0564 -0.7385,-18.9303 -12.7675,-29.6493 18.9296,-72.169 21.1604,-14.1233 42.2895,-27.6725 62.1127,-28.9859 12.0142,-5.1422 14.59,1.3318 20.9977,-0.073 14.1431,-29.0392 30.462,-33.735 70.6924,-46.6597 25.0018,-3.7771 49.8994,-6.616 73.3521,3.5493 22.6724,13.0155 40.3761,28.0185 47.324,47.3239 11.8454,33.3744 4.8114,65.1756 -1.7746,97.0141 l 26.0281,7.6902 8.8733,-17.7465 13.014,8.2817 -6.507,20.1127 c 3.97,18.4181 26.9671,19.7906 44.9578,28.3943 l 11.2394,28.9859 c 10.4187,4.5896 24.687,3.8654 41.4084,8.2817 l 70.3944,114.169 c 27.3145,51.2676 34.7914,102.5353 45.5493,153.8029 18.6456,13.2948 48.57,20.0102 50.2817,43.1831 0.8916,21.2542 -6.252,23.8115 -41.4085,27.2112 l -15.9718,60.3381 -18.9296,88.7324 c 1.8538,14.39 -2.2698,36.5507 14.1972,31.9436 11.9245,6.9117 29.9963,1.5286 34.9014,22.4789 -0.8861,7.3552 -0.9669,14.8714 -9.4648,20.7042 l -1.1831,0.5916 m -529.4366,-635.9151 c -6.0393,-10.2061 -17.7197,-12.2641 -10.6479,-41.4085 7.7557,-20.114 18.0573,-24.9518 27.2113,-36.676 20.7899,-7.1415 25.955,-6.4705 34.9014,-7.6902 -13.2113,12.5438 -26.4225,28.9096 -39.6338,46.1409 -6.0152,11.1397 -8.8882,25.4217 -11.831,39.6338 z m 1871.662,1436.8732 c 19.1754,-21.5621 38.7426,-43.0458 73.3521,-61.5211 l 73.3521,11.831 c 24.1555,18.1408 28.4496,36.2817 37.8592,54.4225 -4.4264,9.8394 4.4364,48.7318 -1.1831,70.9859 l -48.5071,49.6902 c -24.122,-0.088 -57.6428,-7.58 -91.0986,-20.1127 l -15.3803,-27.2113 c -6.4268,-14.971 -21.177,-42.2185 -28.3943,-78.0845 z m -2262.0846,186.9296 -22.4788,-49.6901 28.3943,-40.2254 94.6479,-5.9155 55.6057,55.6056 -21.2958,61.5212 -43.7747,22.4788 c -2.5153,13.304 -4.8552,21.6291 -7.0986,27.2113 -28.3268,27.2339 -55.5379,28.8085 -81.6338,4.7324 -5.8581,-15.7433 -16.84,-29.8854 -5.9155,-50.8732 0.3859,-5.8902 2.109,-15.7917 3.5493,-24.8451 z m -3.184,24.6494 c 12.4838,-14.2848 68.2104,-28.4456 94.1149,19.6596 l 20.9144,-62.325 c 1.223,-19.6709 -14.7329,-31.1614 -36.8094,-39.7374 -26.6306,-8.2259 -39.3533,-2.5439 -50.6129,4.6012 l -23.8424,53.5409 m 101.2258,-94.5332 16.3132,-47.6849 53.541,62.7433 -15.895,40.574 m -37.2277,-104.9904 -105.827,13.3852 -8.3657,40.574 m -25.5156,39.3191 5.0194,-40.1557 29.6985,-41.4106 m 27.1888,-1092.9878 c 101.0851,-53.9077 200.4025,-110.807 329.6113,-117.1208 81.335,5.2881 151.7525,-10.531 264.3584,55.2141 123.4661,98.4977 170.2018,199.8908 175.6811,302.8408 l 71.9457,-82.8211 c -9.5341,-102.4751 -63.3675,-191.3197 -130.5061,-276.0704 -162.5102,-107.3923 -235.7203,-91.6953 -318.7358,-89.5137 -87.8057,4.1858 -121.7361,23.3184 -158.1131,31.7899 -82.7365,19.6228 -143.1628,70.2716 -187.3932,89.5137 m 303.6774,-312.0432 c -0.062,52.8749 19.9872,95.694 77.8017,119.6305 26.7574,-3.0445 47.0186,5.2791 90.3503,-26.7705 43.6106,-30.1979 41.7195,-73.1363 30.1168,-118.7939 -41.0731,-74.5634 -102.4757,-56.6346 -133.8523,-50.1946 -44.9328,26.8425 -54.2348,51.458 -64.4165,76.1285 z m 78.6383,117.1208 -3.3463,19.2413 c 80.8763,7.1132 166.6125,20.2433 293.6385,84.4942 13.9095,-37.7687 23.9171,-73.5864 46.0117,-115.4476 -38.3029,-24.8658 -77.9825,-43.4519 -122.9768,-52.7043 l -7.2773,-12.818 c 16.4834,3.6213 31.4432,0.8111 15.8878,-15.9665 -2.4161,-2.6059 0.8187,-14.6541 2.0495,-17.6355 m -14.493,-10.9433 -6.507,16.8592 c -9.9875,-0.7493 -16.9297,3.4134 -17.155,7.0986 -0.5024,8.0926 3.944,11.9434 8.8733,15.3803 l -17.155,31.9436 c -15.5158,0.3434 -11.6023,-0.055 -15.9718,1.7746 -11.3294,3.0335 4.7386,19.9543 16.5634,22.1832 4.338,1.2368 8.6761,2.4892 13.0141,2.9577 m 14.8937,-53.6519 c -3.9591,7.9733 -9.0655,20.9117 -13.798,31.2053 5.494,2.2308 10.5424,9.1941 12.9966,11.425 9.3627,8.2512 -4.3746,11.8267 -11.9991,11.1799 l -9.2024,18.4047 -74.4553,-34.2996 73.5786,-91.6296 m -342.5381,660.5019 c 11.4726,-10.1337 13.0058,-19.7942 46.0117,-30.9533 47.7709,-4.0115 98.0174,-6.843 143.2742,55.0697 3.6971,5.0577 5.3548,12.6243 6.8913,18.5491 3.6651,16.1141 2.2205,19.0809 3.7647,30.9533 m -250.5548,-62.7433 c -21.6356,-19.6784 -19.9505,-45.7169 -17.5682,-71.9456 32.3114,-55.6274 109.4284,-100.8573 222.7807,-74.7203 55.3748,12.7684 118.1942,44.1096 134.4377,100.6542 22.2592,67.7463 0.1853,129.3594 -44.3386,174.8446 m -263.5217,-252.6463 c -59.2446,-46.839 -105.2168,-101.9732 -152.257,-156.4399 -5.7356,-15.024 2.0444,-26.1864 11.712,-36.8094 m 17.5682,373.95 c -43.3561,3.252 -87.2493,2.7447 -132.1792,-5.0195 m 456.771,-191.5761 c 21.4346,-1.3335 43.3646,-1.0158 60.2336,-17.5681 l 71.9456,-87.8406 c 8.4261,-12.2859 17.7725,-22.994 20.9144,-44.3386 l 0.8366,-21.751 m -40.1557,346.3429 c 44.1326,8.0967 107.1874,-1.0086 175.6812,-15.0584 M 1667.298,2076.0829 c 73.5155,-29.4866 142.1322,-68.771 225.8758,-77.8016 l 58.5604,-91.1869 m -191.5761,46.8483 c 57.6622,-24.4101 109.8629,-53.8267 179.864,-66.9262 m 550.886,581.421 0.4183,33.0448 c 29.858,26.909 63.1441,29.8203 100.8075,2.0915 l 1.6732,-35.1363 c -46.317,21.914 -75.1979,12.0328 -102.899,0 z m 2.5097,-43.502 c 31.3872,20.0772 63.8433,20.9135 97.4612,0.8366 m -1314.2624,756.2656 c 190.7395,-369.767 190.7395,-371.4402 190.7395,-371.4402 33.5301,-87.2903 113.915,-126.2881 184.2495,-143.8933 l 304.0564,-26.0281 392.7887,-16.5634 309.7688,-5.7125 406.0058,-1.3861 m 760.6049,-25.5999 h 1.6732 l -53.541,-81.9845 c -23.1743,-18.9624 -53.3063,-37.9248 -98.716,-56.8872 -44.6826,-11.9686 -84.6164,-29.6357 -172.3349,10.0389 -0.5473,3.6313 -47.1119,17.6071 -92.0234,80.3114 -19.476,4.3607 -73.7639,57.7059 -128.833,6.6926 l -167.3154,3.3463 c -44.2319,-22.7137 -87.5864,-45.5393 -142.2181,-66.9262 m 0,0 v 0 c -19.0624,-7.4029 -49.9005,-11.996 -81.9845,-15.0584 -91.072,5.8151 -182.144,13.5026 -273.216,32.5387 m 915.7072,113.0258 -122.1404,-74.4553"
     id="path4540"
     inkscape:connector-curvature="0"
     sodipodi:nodetypes="cccccccccscccccccccccccccccccccccccccccccccccccccccccccccccccccccccccccccccccccccccccccccccccccccccccccccccccccccccccccccccccccccccccccccccccccccccccccccccccccccccccccccccccccccccccccccccccccccsccccccccccccccccccsccccsccccccccccccccccccccccccccccccc" />
  <path
     style="fill:none;stroke:#000000;stroke-width:7.55905512;stroke-linecap:butt;stroke-linejoin:miter;stroke-opacity:1;stroke-miterlimit:4;stroke-dasharray:none"
     d="M 3551.662,3151.7746 Z"
     id="path5089"
     inkscape:connector-curvature="0" />
  <path
     style="fill:none;stroke:#000000;stroke-width:1px;stroke-linecap:butt;stroke-linejoin:miter;stroke-opacity:1"
     d="M 5934.4225,2441.9155 Z"
     id="path5185"
     inkscape:connector-curvature="0" />
  <ellipse
     style="opacity:1;fill:none;fill-opacity:1;stroke:#000000;stroke-width:7.55905512;stroke-miterlimit:4;stroke-dasharray:none;stroke-opacity:1"
     id="path821"
     cx="3919.6055"
     cy="3325.6902"
     rx="43.106232"
     ry="36.270081" />
  <ellipse
     style="opacity:1;fill:none;fill-opacity:1;stroke:#000000;stroke-width:7.55905512;stroke-miterlimit:4;stroke-dasharray:none;stroke-opacity:1"
     id="path825"
     cx="3895.9436"
     cy="3264.1689"
     rx="294.6189"
     ry="254.39352" />
  <ellipse
     style="opacity:1;fill:none;fill-opacity:1;stroke:#000000;stroke-width:7.55905512;stroke-miterlimit:4;stroke-dasharray:none;stroke-opacity:1"
     id="path827"
     cx="1630.3098"
     cy="3352.9016"
     rx="288.63196"
     ry="250.77281" />
  <ellipse
     style="opacity:1;fill:none;fill-opacity:1;stroke:#000500;stroke-width:7.55905512;stroke-miterlimit:4;stroke-dasharray:none;stroke-opacity:1"
     id="path847"
     cx="2023.0985"
     cy="1859.8311"
     rx="40.225353"
     ry="33.126759" />
</svg>
